<?xml version="1.0" standalone="no"?>
<!DOCTYPE svg PUBLIC "-//W3C//DTD SVG 20010904//EN"
 "http://www.w3.org/TR/2001/REC-SVG-20010904/DTD/svg10.dtd">
<svg version="1.0" xmlns="http://www.w3.org/2000/svg"
 width="260.000000pt" height="260.000000pt" viewBox="0 0 260.000000 260.000000"
 preserveAspectRatio="xMidYMid meet">
<metadata>
Created by potrace 1.14, written by Peter Selinger 2001-2017
</metadata>
<g transform="translate(0.000000,260.000000) scale(0.100000,-0.100000)"
fill="#000000" stroke="none">
<path d="M675 2074 c-16 -10 -142 -82 -279 -161 -136 -78 -250 -143 -252 -143
-2 0 -28 -15 -57 -34 -91 -59 -87 -38 -87 -429 0 -218 4 -355 11 -375 13 -38
22 -44 389 -252 239 -135 313 -173 341 -173 39 0 44 2 353 180 l209 120 261
-150 c209 -120 268 -150 298 -150 53 0 689 362 718 409 19 30 20 51 20 380 0
259 -4 355 -13 374 -18 35 -54 58 -447 278 -25 14 -88 50 -140 80 -127 75
-155 75 -270 8 -46 -27 -100 -57 -119 -68 -20 -11 -98 -56 -174 -99 -134 -78
-138 -79 -166 -65 -16 9 -131 74 -257 147 -246 141 -282 154 -339 123z m81
-113 c5 -4 34 -22 64 -38 30 -17 150 -85 267 -152 l212 -122 281 160 282 161
46 -28 c66 -38 88 -51 176 -100 42 -24 74 -47 71 -52 -3 -4 -33 -24 -68 -43
-34 -19 -224 -128 -422 -241 -302 -174 -363 -206 -381 -197 -17 8 -139 76
-269 151 -197 113 -451 259 -495 283 -30 16 -59 34 -65 38 -5 5 -12 9 -16 9
-4 0 -8 -197 -8 -437 0 -241 0 -464 -1 -495 l0 -56 -153 89 -152 88 0 313 c0
172 4 318 8 325 4 6 20 18 35 26 36 18 330 186 362 206 14 8 45 26 70 40 25
13 65 37 90 52 50 32 52 33 66 20z m1440 -180 c5 -5 65 -42 134 -81 69 -39
130 -77 135 -84 8 -10 14 -599 6 -637 0 -4 -16 -14 -33 -23 -18 -9 -49 -26
-68 -38 -19 -11 -55 -32 -80 -46 -25 -13 -60 -33 -78 -44 -18 -11 -35 -18 -38
-15 -4 4 -7 582 -5 905 1 69 6 82 27 63z"/>
</g>
</svg>
