<svg width="100" height="99" viewBox="0 0 100 99" fill="none" xmlns="http://www.w3.org/2000/svg">
<path d="M36.9126 98.5586C34.5457 97.4455 34.0379 96.4351 34.4988 93.8926C35.1107 90.5197 35.7174 87.1441 36.259 83.7584C36.3241 83.347 36.1054 82.7429 35.8007 82.4472C33.2333 79.9458 30.6268 77.4778 28.0021 75.033C26.9111 74.0149 26.3981 72.8323 26.8356 71.403C27.2756 69.9684 28.3588 69.264 29.8613 69.0635C33.4052 68.5905 36.9413 68.0506 40.4851 67.5776C41.2611 67.4747 41.735 67.1996 42.0969 66.4644C43.6332 63.3203 45.2659 60.2198 46.8256 57.086C47.4844 55.7646 48.4426 54.9085 49.9789 54.8956C51.5595 54.8828 52.5437 55.7569 53.2129 57.1117C54.7648 60.2481 56.3897 63.3511 57.9181 66.5004C58.2619 67.2099 58.7123 67.4721 59.4518 67.5698C63.0921 68.0583 66.7271 68.5905 70.3647 69.1021C71.75 69.2974 72.7238 70.0353 73.1587 71.331C73.5909 72.6267 73.2733 73.8118 72.2708 74.7682C69.5836 77.3364 66.8963 79.9021 64.1831 82.4421C63.7535 82.8431 63.6233 83.2134 63.73 83.7866C64.3706 87.2521 64.9851 90.7253 65.5892 94.1985C65.9772 96.4403 65.3262 97.5457 63.0817 98.5638C62.626 98.5638 62.1703 98.5638 61.7146 98.5638C61.0454 98.245 60.371 97.9391 59.7096 97.6023C56.7152 96.0752 53.7337 94.5224 50.7262 93.0211C50.3825 92.8488 49.8201 92.7768 49.4998 92.9362C45.8075 94.7821 42.1438 96.6794 38.4723 98.5638C37.9542 98.5586 37.4334 98.5586 36.9126 98.5586ZM62.2484 95.178C62.2484 94.8489 62.2797 94.6253 62.2432 94.417C61.5948 90.6945 60.9673 86.9668 60.2616 83.2545C60.0716 82.2519 60.3137 81.5372 61.0454 80.8533C63.7587 78.3185 66.4381 75.7451 69.1461 73.2025C69.3935 72.9712 69.7528 72.858 70.0601 72.6909C69.9663 72.583 69.8752 72.475 69.7815 72.3696C69.5966 72.3233 69.4117 72.259 69.2242 72.2333C65.3965 71.696 61.5714 71.1459 57.7385 70.642C56.6761 70.5032 55.9757 70.061 55.4991 69.0764C54.1295 66.2459 52.6791 63.4514 51.26 60.6415C50.8746 59.8805 50.4867 59.1221 50.031 58.2274C49.7836 58.6619 49.6039 58.9524 49.4503 59.2558C47.7786 62.5464 46.0939 65.832 44.4561 69.1406C44.029 70.0019 43.4327 70.4749 42.4667 70.606C39.1493 71.0508 35.8398 71.5315 32.5251 72.002C31.7517 72.1125 30.981 72.2385 29.9316 72.403C30.4211 72.8143 30.7049 73.0303 30.9601 73.2719C33.6578 75.8274 36.3398 78.393 39.0504 80.9356C39.6675 81.5166 39.9618 82.149 39.8081 82.9897C39.4488 84.9435 39.1025 86.8974 38.7588 88.8538C38.3942 90.9284 38.0349 93.0031 37.6495 95.214C38.0453 95.0366 38.3083 94.9363 38.5583 94.8078C41.8444 93.1265 45.1513 91.4837 48.4009 89.7304C49.5675 89.1006 50.5257 89.1314 51.6688 89.751C54.2857 91.1726 56.9599 92.4915 59.6107 93.8463C60.4674 94.2834 61.3292 94.7127 62.2484 95.178Z" fill="#141414"/>
<path d="M99.9986 64.6923C99.4231 65.4121 98.9128 66.1937 98.2618 66.8389C96.4937 68.5871 94.6814 70.2941 92.8535 71.9832C92.3562 72.4433 92.1713 72.8495 92.3119 73.5591C92.8301 76.1685 93.2545 78.7933 93.7076 81.4155C94.0747 83.5313 93.192 85.0841 91.3276 85.3386C90.6428 85.4312 89.8278 85.2435 89.1925 84.9376C86.8281 83.8013 84.482 82.6161 82.1932 81.3384C81.2376 80.8037 80.5085 80.778 79.5398 81.3153C77.2198 82.6033 74.8268 83.7704 72.4573 84.9684C71.5017 85.4518 70.7127 85.3232 70.1737 84.6497C69.5201 83.8296 69.7128 82.7241 70.7179 82.1919C73.8113 80.5595 76.9177 78.945 80.0684 77.4205C80.5476 77.1891 81.3704 77.3022 81.8886 77.5516C84.3987 78.7573 86.8594 80.0659 89.3409 81.3359C89.6247 81.4824 89.9163 81.6135 90.3668 81.8269C90.0283 79.8422 89.7132 77.9938 89.3956 76.1479C89.2107 75.0733 89.0857 73.9858 88.8149 72.9318C88.5441 71.8855 88.8904 71.1631 89.6481 70.4612C91.5932 68.6617 93.4941 66.8158 95.4157 64.9905C95.6475 64.772 95.9001 64.5792 96.3636 64.1884C94.2336 63.8799 92.3952 63.6125 90.5569 63.3477C89.3357 63.1704 88.1144 62.9596 86.888 62.8336C85.9767 62.7385 85.422 62.2886 85.0314 61.4968C83.818 59.0519 82.5734 56.6225 81.3365 54.1879C81.1959 53.9128 81.0345 53.648 80.8132 53.2547C79.4279 55.9875 78.0687 58.566 76.8136 61.1934C76.3136 62.2372 75.6236 62.7513 74.4623 62.8953C71.2699 63.2912 68.088 63.7822 64.9008 64.2218C63.8462 64.3684 63.0078 63.7976 62.8776 62.8824C62.737 61.9004 63.2708 61.1703 64.3644 61.0032C67.2886 60.5558 70.2231 60.1753 73.1421 59.7049C73.5301 59.6432 74.0014 59.2833 74.1863 58.9336C75.4335 56.5762 76.6391 54.1956 77.8031 51.7996C78.4384 50.4936 79.2821 49.5064 80.8652 49.5167C82.3989 49.527 83.2296 50.4782 83.8493 51.7584C84.969 54.0696 86.1954 56.332 87.302 58.6483C87.664 59.4041 88.1275 59.7306 88.9607 59.8309C91.4474 60.1265 93.9159 60.5635 96.4026 60.8335C98.0457 61.0134 99.3242 61.5867 99.9986 63.1498C99.9986 63.6665 99.9986 64.1781 99.9986 64.6923Z" fill="#141414"/>
<path d="M0 63.1514C0.666595 61.5729 1.96073 61.0176 3.60117 60.8351C6.18423 60.5472 8.75426 60.1178 11.3321 59.7836C11.9466 59.7039 12.2851 59.4623 12.5611 58.8993C13.7746 56.4184 15.0661 53.9761 16.2925 51.5004C16.8862 50.3024 17.7637 49.526 19.149 49.5234C20.529 49.5209 21.4326 50.2716 22.0289 51.4721C23.2709 53.9761 24.5494 56.4595 25.7915 58.9635C26.0258 59.4366 26.2888 59.6757 26.8669 59.7502C29.7338 60.123 32.5954 60.5472 35.4545 60.9816C36.7148 61.1719 37.285 61.8609 37.134 62.8943C36.9908 63.879 36.1315 64.3777 34.9233 64.2055C31.8976 63.7761 28.8771 63.3185 25.8436 62.9535C24.526 62.7966 23.6719 62.2928 23.0965 61.0433C21.9039 58.4545 20.5499 55.9351 19.1906 53.246C18.9745 53.6316 18.8157 53.8964 18.6751 54.1689C17.4356 56.6035 16.191 59.0304 14.9723 61.4752C14.5818 62.2593 14.0428 62.7092 13.1288 62.8301C10.163 63.2208 7.20755 63.6682 4.24694 64.0975C4.13237 64.1129 4.0204 64.1438 3.91104 64.1669C4.65575 64.9381 5.34838 65.694 6.08007 66.4061C7.56429 67.8458 9.06673 69.2674 10.5692 70.6891C11.1576 71.2444 11.366 71.864 11.2149 72.6815C10.6629 75.6714 10.163 78.669 9.61094 81.8594C10.0536 81.6434 10.3556 81.502 10.6525 81.3503C13.1027 80.0932 15.5634 78.8541 17.9981 77.5661C18.7922 77.147 19.4979 77.1239 20.2973 77.5429C23.1954 79.0597 26.1196 80.5354 29.0255 82.0393C30.1113 82.6023 30.4655 83.515 29.9863 84.4045C29.5176 85.2734 28.5542 85.4842 27.458 84.9264C24.9478 83.6461 22.4351 82.3632 19.9432 81.0496C19.4068 80.7668 18.9875 80.7385 18.4277 81.0367C15.967 82.3452 13.4699 83.5793 11.0014 84.875C9.7854 85.5125 8.59542 85.677 7.42368 84.8518C6.24412 84.0189 6.03581 82.8363 6.27276 81.5097C6.74927 78.8283 7.18412 76.1367 7.7101 73.4656C7.83509 72.828 7.66584 72.4655 7.22578 72.0542C5.38223 70.3343 3.54389 68.6093 1.75241 66.8354C1.10144 66.1901 0.585874 65.4112 0.00781165 64.6913C0 64.1772 0 63.6656 0 63.1514Z" fill="#141414"/>
<path d="M80.1293 29.5578C80.0928 41.89 72.065 53.1914 60.2747 57.3716C59.0118 57.8189 58.1317 57.5361 57.7437 56.5566C57.3609 55.5926 57.8426 54.7596 59.0925 54.3046C61.6104 53.3868 63.9487 52.1451 66.0683 50.5203C66.3209 50.3275 66.6021 49.9959 66.6229 49.7105C67.076 43.6408 63.9097 39.2164 59.4883 37.1006C58.905 36.8204 58.478 36.8306 57.8921 37.1726C52.6401 40.2293 47.3542 40.2344 42.1047 37.17C41.5111 36.8229 41.0762 36.8178 40.5112 37.1057C35.9518 39.4323 33.59 43.1009 33.3192 48.168C33.2411 49.6282 33.6343 50.6077 34.9493 51.2633C36.9438 52.2582 38.9384 53.2557 40.9018 54.3123C41.4355 54.6002 42.0735 55.027 42.2532 55.5334C42.4146 55.9808 42.175 56.8548 41.8027 57.1248C41.347 57.4538 40.4929 57.5798 39.9435 57.3999C36.1627 56.1581 32.8063 54.1632 29.8691 51.5101C13.7693 36.9797 18.024 11.2637 37.9646 2.5229C55.5746 -5.19474 76.0985 5.56419 79.4939 24.3158C79.809 26.046 79.9236 27.8096 80.1293 29.5578ZM61.3787 34.2984C66.4068 37.0672 69.2294 41.2396 69.9637 46.8183C78.4107 38.0004 79.7491 21.583 68.6435 10.7804C57.7723 0.209149 39.9201 0.898132 29.8483 12.364C19.8624 23.7323 22.5209 39.2498 30.0462 46.7772C30.7518 41.201 33.6187 37.0517 38.5635 34.3035C32.7594 27.1489 34.6628 18.3232 39.9487 13.6443C45.3596 8.85485 53.5853 8.56178 59.3164 13.0684C62.2562 15.3822 64.0893 18.3798 64.7429 22.0278C65.5553 26.5859 64.3419 30.6504 61.3787 34.2984ZM50.044 36.1725C56.4495 36.1417 61.725 30.8894 61.6755 24.5935C61.6261 18.3104 56.3662 13.1584 49.9997 13.1559C43.5942 13.1533 38.3057 18.3721 38.3187 24.6835C38.3317 30.982 43.6567 36.2034 50.044 36.1725Z" fill="#141414"/>
<path d="M41.2609 77.3963C40.0214 77.44 39.3158 76.9078 39.209 75.9952C39.097 75.0234 39.6777 74.301 40.7479 74.1391C42.1904 73.9205 43.6356 73.702 45.086 73.5452C45.7369 73.4758 46.1301 73.2367 46.4113 72.6351C47.0337 71.2983 47.7159 69.9923 48.3981 68.6838C48.9371 67.6477 49.8094 67.2955 50.7025 67.7171C51.6269 68.1542 51.8977 69.0951 51.3613 70.1748C50.4916 71.9256 49.6376 73.6866 48.6793 75.3911C48.4111 75.8641 47.8461 76.3834 47.3383 76.4811C45.2682 76.8796 43.1695 77.1212 41.2609 77.3963Z" fill="#141414"/>
</svg>
