<svg width="100" height="100" viewBox="0 0 100 100" fill="none" xmlns="http://www.w3.org/2000/svg">
<path d="M94.3328 0C94.4122 0.0521518 94.4852 0.12725 94.5708 0.154369C97.0696 0.97211 98.3054 2.5158 98.3096 5.10462C98.3325 17.2351 98.3388 29.3656 98.3096 41.4982C98.3012 44.6628 96.2346 46.6279 93.049 46.6341C87.5484 46.6446 82.0478 46.6383 76.5493 46.6383C76.1965 46.6383 75.8438 46.6383 75.3511 46.6383C75.5912 48.4115 75.8166 50.1012 76.0462 51.7888C76.1506 52.5607 76.3072 53.3304 76.3615 54.1064C76.4074 54.7573 76.6474 55.0097 77.3238 54.9868C78.7182 54.9409 80.1169 54.9722 81.5844 54.9722C81.5844 56.084 81.5844 57.1354 81.5844 58.2619C81.2462 58.2765 80.9289 58.3036 80.6116 58.3036C71.3368 58.3057 62.0599 58.2911 52.7851 58.3266C51.8708 58.3307 51.5743 58.0658 51.6599 57.1813C51.7267 56.5075 51.6724 55.8212 51.6724 55.0139C53.403 55.0139 55.0751 55.0139 56.8182 55.0139C57.2169 52.1789 57.601 49.4566 57.9976 46.6383C57.5634 46.6383 57.2106 46.6383 56.8578 46.6383C51.3572 46.6383 45.8566 46.6321 40.3581 46.6425C38.1767 46.6467 36.538 45.7851 35.5214 43.8033C35.4065 43.578 35.0558 43.334 34.8158 43.334C26.0941 43.3152 17.3725 43.3235 8.65089 43.334C8.59244 43.334 8.53399 43.3757 8.415 43.4237C8.415 47.771 8.415 52.1393 8.415 56.5618C19.4705 56.5618 30.4884 56.5618 41.6273 56.5618C41.6273 54.3943 41.6273 52.2352 41.6273 50.024C42.7734 50.024 43.7983 50.024 44.9506 50.024C44.9506 52.1727 44.9506 54.3297 44.9506 56.5951C46.6791 56.5951 48.2865 56.5951 50.0003 56.5951C50.0003 57.0541 50.0003 57.4004 50.0003 57.7487C50.0003 63.0494 50.0003 68.3502 50.0003 73.6529C50.0003 77.775 49.0672 78.9975 45.0258 80.0634C45.0258 86.622 45.0258 93.2099 45.0258 99.8624C31.6678 99.8624 18.4079 99.8624 5.04784 99.8624C5.04784 93.2641 5.04784 86.6805 5.04784 80.0447C4.68252 79.9696 4.4028 79.9028 4.12098 79.8548C1.82263 79.4689 0.0565963 77.629 0.0336336 75.3051C-0.0269042 69.1283 0.0127585 62.9493 0.0127585 56.664C1.65146 56.664 3.26093 56.664 4.98313 56.664C4.98313 51.0775 4.98313 45.5994 4.98313 40.0255C15.0053 40.0255 24.9147 40.0255 34.9849 40.0255C34.9849 39.5582 34.9849 39.1848 34.9849 38.8114C34.9849 27.8845 34.9849 16.9556 34.9849 6.02875C34.9849 2.52415 35.8324 1.2725 39.0618 0.00625822C57.4882 0 75.9105 0 94.3328 0ZM38.3311 6.65457C56.1314 6.65457 73.846 6.65457 91.569 6.65457C91.569 7.82486 91.569 8.87415 91.569 10.0111C73.8001 10.0111 56.1105 10.0111 38.3938 10.0111C38.3938 18.9248 38.3938 27.7489 38.3938 36.6022C57.2628 36.6022 76.0608 36.6022 94.9862 36.6022C94.9862 36.2038 94.9862 35.8575 94.9862 35.5112C94.9862 25.5919 94.9862 15.6727 94.9862 5.75339C94.9862 3.70486 94.6 3.3252 92.5251 3.3252C75.2759 3.3252 58.0268 3.3252 40.7777 3.3252C40.5168 3.3252 40.2558 3.31477 39.997 3.33146C38.9991 3.39613 38.4272 3.91764 38.3395 4.90227C38.2915 5.44256 38.3311 5.9912 38.3311 6.65457ZM46.6708 60.0184C32.1646 60.0184 17.7733 60.0184 3.33608 60.0184C3.33608 65.0396 3.32355 69.9815 3.34443 74.9234C3.3486 75.9789 3.91849 76.5067 4.9873 76.5985C5.27747 76.6235 5.57181 76.6131 5.86614 76.6131C18.6229 76.6131 31.3797 76.6131 44.1365 76.6131C44.4288 76.6131 44.7231 76.6235 45.0154 76.5985C46.0863 76.5067 46.6561 75.981 46.6624 74.9255C46.6833 69.9856 46.6708 65.0437 46.6708 60.0184ZM41.5918 96.5664C41.5918 91.0091 41.5918 85.531 41.5918 80.0322C30.4946 80.0322 19.4579 80.0322 8.4317 80.0322C8.4317 85.5874 8.4317 91.0612 8.4317 96.5664C19.4997 96.5664 30.4904 96.5664 41.5918 96.5664ZM38.3812 40.038C38.1474 42.8771 38.5441 43.3131 41.2432 43.3131C58.3191 43.3131 75.3928 43.3131 92.4687 43.3131C92.8257 43.3131 93.1889 43.3402 93.5396 43.286C94.3746 43.1608 94.9111 42.6977 94.957 41.8153C94.9883 41.2416 94.9633 40.6659 94.9633 40.038C76.0629 40.038 57.2503 40.038 38.3812 40.038ZM72.988 54.9242C72.5956 52.1143 72.2198 49.4232 71.8399 46.6905C68.3245 46.6905 64.8593 46.6905 61.3272 46.6905C60.9452 49.4316 60.5652 52.1476 60.177 54.9242C64.4668 54.9242 68.6502 54.9242 72.988 54.9242Z" fill="#141414"/>
<path d="M100.002 92.7029C99.9431 92.7738 99.8596 92.8364 99.8304 92.9178C98.9056 95.4795 97.34 96.5955 94.6179 96.5976C87.752 96.6018 80.8841 96.6101 74.0183 96.583C73.3169 96.5809 72.8305 96.6894 72.6217 97.4258C72.5633 97.6344 72.3796 97.8075 72.2606 98.0015C70.5822 100.707 63.7373 100.851 62.299 97.2422C62.0694 96.6644 61.7187 96.5559 61.1822 96.5934C60.7292 96.6247 60.2699 96.6101 59.8169 96.5913C57.1449 96.4766 55.0804 94.5387 55.0553 91.8727C54.9927 85.0449 54.9927 78.2151 55.0511 71.3853C55.0741 68.6255 57.1178 66.7376 59.9651 66.6103C60.5079 66.5853 61.0527 66.6062 61.6289 66.6062C61.8627 64.1821 62.9232 62.3819 65.2674 61.8812C66.6869 61.5766 68.2755 61.5745 69.6971 61.8687C72.0456 62.3547 73.1394 64.1321 73.3649 66.5999C73.7699 66.5999 74.1456 66.5999 74.5214 66.5999C80.9655 66.5999 87.4076 66.5999 93.8517 66.5999C97.4757 66.5999 98.6635 67.3822 100.002 70.649C100.002 78.0003 100.002 85.3516 100.002 92.7029ZM73.3899 93.2265C73.7302 93.2432 74.0162 93.2724 74.3001 93.2724C81.0323 93.2745 87.7646 93.2766 94.4989 93.2724C96.1772 93.2724 96.6741 92.7571 96.6741 91.0299C96.6761 84.7904 96.6761 78.5489 96.6741 72.3095C96.6741 70.3861 96.2336 69.9376 94.334 69.9355C87.6998 69.9334 81.0636 69.9334 74.4295 69.9376C74.0872 69.9376 73.7448 69.9731 73.3899 69.9918C73.3899 77.7958 73.3899 85.4851 73.3899 93.2265ZM65.019 80.6955C65.019 85.3412 65.0148 89.9889 65.0211 94.6346C65.0232 96.049 65.5576 96.5726 66.9604 96.5955C67.2527 96.5997 67.5449 96.5976 67.8392 96.5955C69.4967 96.5872 69.9873 96.1095 69.9873 94.4448C69.9915 85.314 69.9915 76.1833 69.9873 67.0526C69.9873 65.4359 69.5072 64.9728 67.8956 64.9623C67.6347 64.9602 67.3758 64.9602 67.1149 64.9623C65.495 64.9728 65.0211 65.4359 65.0211 67.0463C65.0148 71.5981 65.019 76.1478 65.019 80.6955ZM61.6289 70.0398C58.9715 69.6414 58.3536 70.1608 58.3536 72.6996C58.3536 77.1888 58.3536 81.6759 58.3536 86.1652C58.3536 87.955 58.3369 89.7428 58.364 91.5326C58.3807 92.6612 58.9277 93.2057 60.0382 93.2661C60.5476 93.2933 61.0611 93.2703 61.6289 93.2703C61.6289 85.4768 61.6289 77.7833 61.6289 70.0398Z" fill="#141414"/>
<path d="M25.9787 0C26.0601 0.0521518 26.1332 0.123078 26.2229 0.150197C28.7363 0.955421 29.9972 2.55127 30.0034 5.17346C30.0285 13.9475 30.0368 22.7215 29.9992 31.4955C29.9867 34.6413 27.9034 36.6356 24.7387 36.6502C19.927 36.6711 15.1132 36.669 10.2994 36.6502C7.06166 36.6377 5.0326 34.6497 5.02425 31.4329C5.00337 22.6923 5.02425 13.9496 5.01172 5.20892C5.00963 2.4407 6.48133 0.834429 8.98843 0C14.6519 0 20.3153 0 25.9787 0ZM8.39558 26.564C14.5454 26.564 20.5783 26.564 26.5945 26.564C26.5945 20.9963 26.5945 15.5162 26.5945 10.059C20.4823 10.059 14.4473 10.059 8.39558 10.059C8.39558 15.5996 8.39558 21.0568 8.39558 26.564ZM26.5486 6.59407C27.0433 4.08453 26.4338 3.32311 23.958 3.32311C21.9394 3.32311 19.9228 3.32311 17.9042 3.32311C15.3324 3.32311 12.7627 3.3106 10.1908 3.32937C8.94042 3.33772 8.39975 3.88009 8.358 5.10045C8.3413 5.58024 8.35592 6.06004 8.35592 6.59407C14.4828 6.59407 20.5199 6.59407 26.5486 6.59407ZM26.6738 30.0561C20.5052 30.0561 14.4765 30.0561 8.45403 30.0561C8.06367 32.7284 8.55632 33.325 11.0906 33.325C15.5453 33.325 20.0001 33.3292 24.4548 33.3229C26.1812 33.3208 26.6613 32.8327 26.6738 31.1159C26.6759 30.7946 26.6738 30.4754 26.6738 30.0561Z" fill="#141414"/>
<path d="M6.70703 73.2193C6.70703 72.1116 6.70703 71.1124 6.70703 70.0234C7.76331 70.0234 8.81124 70.0234 9.93015 70.0234C9.93015 71.0706 9.93015 72.1178 9.93015 73.2193C8.85717 73.2193 7.83011 73.2193 6.70703 73.2193Z" fill="#141414"/>
<path d="M16.6122 70.0186C16.6122 71.0971 16.6122 72.0942 16.6122 73.181C15.5455 73.181 14.4996 73.181 13.3828 73.181C13.3828 72.1547 13.3828 71.1304 13.3828 70.0186C14.4161 70.0186 15.4641 70.0186 16.6122 70.0186Z" fill="#141414"/>
<path d="M11.7422 86.5524C11.7422 85.4719 11.7422 84.4455 11.7422 83.3545C20.5724 83.3545 29.3671 83.3545 38.2432 83.3545C38.2432 84.3829 38.2432 85.4343 38.2432 86.5524C29.4526 86.5524 20.66 86.5524 11.7422 86.5524Z" fill="#141414"/>
<path d="M11.7461 93.1934C11.7461 92.1504 11.7461 91.124 11.7461 90.0205C20.5596 90.0205 29.3814 90.0205 38.2596 90.0205C38.2596 91.0615 38.2596 92.0878 38.2596 93.1934C29.444 93.1934 20.6243 93.1934 11.7461 93.1934Z" fill="#141414"/>
<path d="M79.9559 73.3477C79.9559 74.4241 79.9559 75.4421 79.9559 76.5393C78.8767 76.5393 77.8309 76.5393 76.7266 76.5393C76.7266 75.4692 76.7266 74.447 76.7266 73.3477C77.81 73.3477 78.8537 73.3477 79.9559 73.3477Z" fill="#141414"/>
<path d="M86.6304 73.3828C86.6304 74.4279 86.6304 75.4522 86.6304 76.5453C85.5408 76.5453 84.4887 76.5453 83.3906 76.5453C83.3906 75.4939 83.3906 74.4947 83.3906 73.3828C84.4532 73.3828 85.5157 73.3828 86.6304 73.3828Z" fill="#141414"/>
<path d="M93.2924 73.3477C93.2924 74.4491 93.2924 75.4734 93.2924 76.556C92.1965 76.556 91.1465 76.556 90.0547 76.556C90.0547 75.4734 90.0547 74.4491 90.0547 73.3477C91.1193 73.3477 92.1631 73.3477 93.2924 73.3477Z" fill="#141414"/>
<path d="M90.0938 79.9844C91.1793 79.9844 92.1833 79.9844 93.2668 79.9844C93.2668 81.0629 93.2668 82.1101 93.2668 83.224C92.2251 83.224 91.2001 83.224 90.0938 83.224C90.0938 82.1706 90.0938 81.1234 90.0938 79.9844Z" fill="#141414"/>
<path d="M86.6213 86.6914C86.6213 87.747 86.6213 88.7712 86.6213 89.8727C85.5567 89.8727 84.5087 89.8727 83.4023 89.8727C83.4023 88.8171 83.4023 87.7908 83.4023 86.6914C84.4628 86.6914 85.5128 86.6914 86.6213 86.6914Z" fill="#141414"/>
<path d="M90.0938 86.6611C91.1772 86.6611 92.2 86.6611 93.2835 86.6611C93.2835 87.7501 93.2835 88.7931 93.2835 89.8925C92.2168 89.8925 91.196 89.8925 90.0938 89.8925C90.0938 88.8432 90.0938 87.8001 90.0938 86.6611Z" fill="#141414"/>
<path d="M79.9535 80.0205C79.9535 81.099 79.9535 82.1191 79.9535 83.2122C78.8889 83.2122 77.8723 83.2122 76.7617 83.2122C76.7617 82.1712 76.7617 81.1324 76.7617 80.0205C77.8076 80.0205 78.8534 80.0205 79.9535 80.0205Z" fill="#141414"/>
<path d="M86.6148 83.2342C85.5146 83.2342 84.4918 83.2342 83.4062 83.2342C83.4062 82.1599 83.4062 81.1377 83.4062 80.0342C84.4563 80.0342 85.5021 80.0342 86.6148 80.0342C86.6148 81.0751 86.6148 82.0994 86.6148 83.2342Z" fill="#141414"/>
<path d="M79.9486 86.6914C79.9486 87.7636 79.9486 88.8129 79.9486 89.8935C78.8548 89.8935 77.8298 89.8935 76.7422 89.8935C76.7422 88.8171 76.7422 87.7929 76.7422 86.6914C77.7943 86.6914 78.8443 86.6914 79.9486 86.6914Z" fill="#141414"/>
</svg>
