<svg width="125" height="77" viewBox="0 0 125 77" fill="none" xmlns="http://www.w3.org/2000/svg">
<path d="M125 36.2049C124.322 37.8012 123.066 38.6577 121.451 39.2287C118.738 40.1923 116.063 41.2759 113.402 42.3725C111.774 43.0409 110.274 43.1285 108.813 41.9865C108.614 41.8307 108.108 41.8372 107.88 41.9767C105.708 43.3199 103.565 44.7085 101.435 46.0679C102.847 52.9525 99.6609 56.7452 92.916 56.2942C91.556 61.2873 89.6218 62.7797 84.1457 62.9712C83.9174 65.3428 82.965 67.3738 80.8972 68.7462C78.875 70.0861 76.6669 70.271 74.2827 69.5962C73.5815 72.9574 71.6963 75.1571 68.2847 75.8806C64.8177 76.6138 62.4139 74.5763 59.8601 72.594C59.2828 73.2526 58.7446 73.8918 58.1739 74.5017C56.3246 76.4743 54.0643 77.2335 51.429 76.5262C48.8001 75.8189 47.2379 74.0508 46.5921 71.4228C46.5073 71.0821 46.0767 70.6052 45.7669 70.5695C41.9574 70.1413 40.0526 68.5288 39.1622 64.8756C39.1264 64.7231 39.0709 64.5739 39.0318 64.4409C34.3547 63.8666 32.476 62.2606 31.69 58.1922C25.3006 57.2156 22.861 53.3905 25.2876 47.9269C24.8701 47.622 24.4428 47.2748 23.9764 46.9796C21.6085 45.4807 19.2504 43.9753 16.8466 42.5348C16.4976 42.3271 15.9301 42.4472 15.467 42.4634C14.4037 42.4991 13.2361 42.8819 12.3033 42.5639C8.9667 41.4219 5.69536 40.0755 2.42401 38.7485C0.372491 37.9147 -0.511392 35.9162 0.297475 33.8625C4.42987 23.3669 8.5851 12.881 12.7664 2.40489C13.5818 0.360929 15.6138 -0.49559 17.6816 0.286308C20.9464 1.52566 24.1884 2.82018 27.4337 4.1082C29.1362 4.78303 29.9255 6.06457 29.9777 7.87818C29.9875 8.20586 30.2777 8.67305 30.568 8.81905C32.8805 9.97081 35.2842 10.5029 37.9391 10.5516C43.0435 10.6456 48.2 10.5645 53.1706 12.1478C53.5131 12.2581 54.1426 11.9174 54.4557 11.606C56.1093 9.95783 57.789 8.23182 60.2026 7.9528C62.104 7.73543 64.0708 7.95604 65.9984 8.11178C67.4106 8.22533 68.8066 8.54652 70.2123 8.76714C71.618 8.98776 72.378 9.76641 72.2442 10.8598C72.1007 12.0148 71.1451 12.5988 69.6578 12.3781C67.6063 12.0764 65.558 11.765 63.5163 11.4081C61.3213 11.0252 59.5503 11.7228 58.0043 13.2736C53.6664 17.6113 49.0611 21.6474 44.0578 25.2227C43.1674 25.8586 42.2411 26.4491 41.3475 27.0817C40.1798 27.9058 40.1798 28.5417 41.3246 29.4501C43.4349 31.1242 45.7897 31.2183 48.2522 30.4818C51.442 29.528 54.048 27.5976 56.53 25.4855C59.1654 23.2436 61.0343 23.3053 63.5261 25.6964C68.637 30.6051 74.6937 32.7724 81.7876 31.7958C82.7987 31.6563 83.5782 31.8899 84.3838 32.4869C89.2402 36.0881 94.1261 39.6505 99.051 43.2615C101.66 41.5939 104.25 39.9392 106.902 38.2424C103.435 29.4955 99.9936 20.8233 96.5005 12.0083C95.7797 12.2549 95.0719 12.4106 94.4392 12.7221C89.7686 15.0126 84.9252 15.2235 79.9448 14.0003C79.511 13.8933 79.0544 13.8868 78.6239 13.7765C77.5639 13.5104 77.0094 12.7285 77.1398 11.7325C77.2671 10.7624 78.04 10.1006 79.1359 10.2206C80.9102 10.4185 82.6812 10.6878 84.4392 11.0058C86.3831 11.3562 88.2422 11.0999 90.0687 10.438C91.7419 9.8313 93.4053 9.20513 95.0426 8.59843C95.0262 5.81475 95.646 4.88685 98.2161 3.86487C101.158 2.69364 104.1 1.53215 107.052 0.390128C109.465 -0.544256 111.373 0.292796 112.348 2.71636C113.855 6.46687 115.343 10.2271 116.83 13.9874C117.394 15.4149 117.11 16.3979 116.024 16.8554C114.951 17.3096 114.018 16.7808 113.451 15.363C111.905 11.4989 110.372 7.63161 108.78 3.63127C105.427 4.94525 102.127 6.23976 98.6825 7.58943C102.877 18.1694 107.039 28.665 111.253 39.2904C114.664 37.9537 117.968 36.6592 121.35 35.3322C119.915 31.6985 118.523 28.1718 117.13 24.6452C117.012 24.3435 116.862 24.0515 116.771 23.7432C116.478 22.7342 116.918 21.7707 117.802 21.4332C118.728 21.0796 119.68 21.4397 120.137 22.4098C120.584 23.3604 120.933 24.3564 121.331 25.3265C122.551 28.3081 123.774 31.2865 124.997 34.2648C125 34.9072 125 35.5561 125 36.2049ZM56.9867 58.163C63.5489 57.991 66.6898 65.106 62.1758 69.9628C63.487 70.7382 64.6937 71.6661 66.0538 72.2014C67.6618 72.8373 69.4784 71.89 70.2253 70.3392C70.9755 68.7819 70.5906 67.2635 69.1686 66.1669C68.1706 65.398 67.1464 64.6615 66.1908 63.8471C65.1243 62.9387 65.1993 61.5404 66.3017 60.8753C67.1562 60.3594 67.9194 60.6028 68.663 61.1673C70.5972 62.6467 72.5117 64.1521 74.498 65.5634C76.3342 66.8677 78.6076 66.4913 79.785 64.7978C80.9233 63.1626 80.5156 61.164 78.7608 59.8176C77.2475 58.6561 75.7178 57.5141 74.224 56.3299C73.2684 55.5739 73.1086 54.5001 73.7576 53.6695C74.423 52.8195 75.4243 52.7351 76.4614 53.4651C76.9931 53.8382 77.4921 54.2567 78.0107 54.6461C79.7589 55.9698 81.4712 57.3389 83.2651 58.5977C85.0394 59.8436 87.3061 59.4478 88.464 57.8126C89.5273 56.3137 89.2729 53.9582 87.5051 52.8065C85.6395 51.5931 83.8913 50.1785 82.1985 48.7283C81.7354 48.3325 81.3897 47.4435 81.4842 46.8628C81.569 46.3404 82.2735 45.6591 82.8182 45.5391C83.3727 45.4158 84.162 45.7499 84.674 46.123C87.2018 47.9626 89.6479 49.9092 92.1724 51.7488C92.8019 52.2063 93.6009 52.5664 94.3674 52.68C95.9525 52.9136 97.492 51.9045 98.0562 50.4608C98.6759 48.8775 98.128 47.1256 96.5624 45.9673C92.0224 42.6159 87.4757 39.2774 82.8965 35.9811C82.4562 35.6631 81.7745 35.4847 81.2298 35.5334C73.3108 36.2471 66.5985 33.6613 60.9364 28.2302C60.1797 27.5035 59.7394 27.4678 58.9501 28.1686C56.168 30.6311 53.1478 32.7432 49.5503 33.882C45.9398 35.024 42.4858 34.8099 39.3351 32.5193C35.8387 29.9757 35.9985 26.3777 39.5047 23.8665C42.9978 21.3651 46.3279 18.6398 49.7232 16.0054C49.9841 15.8042 50.1863 15.5284 50.5092 15.1845C49.7493 15.0353 49.1948 14.8666 48.6338 14.8309C44.7819 14.5876 40.93 14.2891 37.0716 14.182C35.007 14.1236 33.0305 13.8835 31.1355 13.053C30.2941 12.6864 29.4363 12.3554 28.5067 11.9791C24.9418 20.9888 21.4161 29.8784 17.8708 38.8199C21.1976 40.9223 24.4395 42.9695 27.7174 45.0394C28.7252 43.8779 29.6417 42.7424 30.6463 41.6847C32.4467 39.79 34.6776 39.1379 37.2086 39.7965C39.7917 40.4681 41.3834 42.1746 42.0226 44.7572C42.1074 45.1011 42.2085 45.4385 42.3031 45.7791C44.1981 45.7305 45.8386 46.1944 47.2476 47.3754C48.6827 48.579 49.3416 50.1915 49.6416 51.9435C54.0121 52.2095 56.2267 54.0848 56.9867 58.163ZM13.7482 39.2806C17.9621 28.6585 22.1206 18.1661 26.3215 7.57645C22.8968 6.23327 19.5929 4.94201 16.2172 3.6183C12.0097 14.2274 7.84473 24.7295 3.64384 35.3192C7.03912 36.6527 10.3431 37.9472 13.7482 39.2806ZM31.4584 54.4384C31.7422 54.3021 32.5054 54.1529 32.9229 53.6954C34.6972 51.7553 36.4388 49.7762 38.0533 47.7031C38.9763 46.5156 38.5882 44.8545 37.4369 43.8941C36.3084 42.9533 34.5667 42.8981 33.5523 43.9882C31.7911 45.883 30.1081 47.862 28.4937 49.8865C27.7598 50.8079 27.8316 51.95 28.4284 52.9752C29.0025 53.9582 29.9059 54.4384 31.4584 54.4384ZM46.067 52.5437C45.9169 51.2492 45.2026 50.1461 44.097 49.6757C42.9196 49.176 41.5791 49.4356 40.656 50.464C39.1427 52.1544 37.6684 53.8804 36.2203 55.6226C35.0168 57.0696 35.1309 58.8281 36.4323 59.9474C37.7402 61.0732 39.5112 60.924 40.7604 59.5159C42.2379 57.8515 43.6991 56.1644 45.0983 54.4319C45.5321 53.8934 45.7506 53.1796 46.067 52.5437ZM57.639 61.7156C56.9671 62.0433 56.1289 62.2152 55.6592 62.7246C53.9241 64.5934 52.2574 66.527 50.6755 68.5256C49.7493 69.6968 50.0526 71.3904 51.1517 72.3669C52.2965 73.3889 54.0643 73.4765 55.1276 72.3442C56.8953 70.4527 58.5685 68.4704 60.1863 66.4491C60.8875 65.5699 60.8418 64.4668 60.3069 63.4643C59.7623 62.4521 58.8882 61.9362 57.639 61.7156ZM45.8321 67.0721C46.5007 66.7379 47.3292 66.553 47.8054 66.0436C49.5144 64.2073 51.155 62.3028 52.7173 60.34C53.6892 59.1201 53.4087 57.4005 52.2672 56.4013C51.0995 55.3825 49.3677 55.3144 48.2946 56.4662C46.5562 58.3284 44.9091 60.2848 43.3077 62.2639C42.5608 63.1853 42.5608 64.2981 43.1511 65.3461C43.7056 66.3421 44.5764 66.8644 45.8321 67.0721Z" fill="#141414"/>
</svg>
