<svg width="65" height="65" viewBox="0 0 65 65" fill="none" xmlns="http://www.w3.org/2000/svg">
<path d="M45.7031 65C36.901 65 28.099 65 19.2969 65C18.8128 64.6378 18.7078 64.1418 18.7129 63.5612C18.7349 61.5756 18.7214 59.5918 18.7214 57.6063C18.7214 57.3151 18.7214 57.024 18.7214 56.6516C18.4014 56.6516 18.1543 56.6516 17.9072 56.6516C12.3754 56.6516 6.84193 56.6465 1.31016 56.66C0.727865 56.6617 0.274219 56.5297 0.00169271 55.9846C0.00169271 55.3499 0.00169271 54.7151 0.00169271 54.0803C0.308073 53.7266 0.614453 53.3677 1.16289 53.5082C1.78242 53.6673 1.91784 54.1667 1.93477 54.7016C3.10443 54.7016 4.21484 54.7016 5.38112 54.7016C5.38112 53.9855 5.37435 53.3135 5.38281 52.6415C5.39297 51.8612 5.76536 51.4075 6.36458 51.4245C6.9401 51.4414 7.27526 51.8714 7.28372 52.6297C7.29219 53.3186 7.28542 54.0075 7.28542 54.71C11.1397 54.71 14.8941 54.71 18.6909 54.71C18.7027 54.473 18.7214 54.2682 18.723 54.0617C18.7535 50.7745 20.2702 48.7246 23.4068 47.7158C24.0568 47.5059 24.7017 47.274 25.3703 47.0454C24.854 45.7674 23.9823 44.9634 22.7534 44.5487C21.2943 44.0561 19.8284 43.5805 18.3642 43.0997C17.9901 42.9762 17.6109 42.8628 17.2436 42.7477C15.793 45.8622 11.7694 45.9198 10.2764 42.7189C8.27057 43.4027 6.23255 44.029 4.25039 44.7975C3.0181 45.2766 2.275 46.3125 2.02786 47.6176C1.9026 48.2743 1.91445 48.9616 1.91276 49.6353C1.91107 50.1837 1.82982 50.6763 1.2526 50.871C0.670312 51.0707 0.289453 50.7406 0 50.2734C0 49.3848 0 48.4961 0 47.6074C0.0338542 47.5566 0.0880208 47.5092 0.0981771 47.4534C0.616146 44.9634 2.12266 43.3909 4.52969 42.6325C5.96003 42.1823 7.37852 41.6999 8.80378 41.2327C10.141 40.796 10.1224 40.796 10.1495 39.4096C10.1596 38.9408 10.0276 38.6547 9.62982 38.3737C8.13685 37.3174 7.01966 35.8854 6.86901 34.0691C6.67773 31.7654 6.5694 29.399 6.88086 27.1223C7.26341 24.3174 9.13047 22.4741 11.8676 21.709C14.6335 20.9354 17.0422 21.6836 19.0311 23.7589C19.1581 23.8909 19.2444 24.0635 19.4035 24.2938C20.4564 22.3979 22.0391 21.5211 23.8926 20.993C25.1299 20.6392 26.3436 20.2008 27.5658 19.7996C28.8438 19.3798 28.8251 19.3798 28.8505 18.007C28.859 17.5195 28.7219 17.2216 28.3055 16.9203C26.7228 15.7811 25.6902 14.2289 25.5108 12.284C25.3483 10.5219 25.3618 8.73607 25.4076 6.96211C25.4736 4.38581 26.6348 2.35964 28.8556 1.04948C29.6901 0.556901 30.6871 0.341927 31.6096 0C32.2021 0 32.7945 0 33.387 0C33.5038 0.040625 33.6189 0.0964844 33.7391 0.116797C36.7318 0.644922 39.1151 2.98932 39.474 6.01927C39.6805 7.7526 39.6094 9.52148 39.5975 11.2751C39.584 13.3724 38.8206 15.2208 37.1702 16.5005C36.2815 17.1895 36.0564 17.8987 36.1427 18.8957C36.1715 19.2359 36.2392 19.4188 36.5879 19.5288C38.179 20.0298 39.7499 20.5952 41.3478 21.0708C43.098 21.5922 44.5419 22.4927 45.4966 24.0855C45.5102 24.1092 45.5711 24.1059 45.6286 24.1194C45.7505 23.9857 45.8758 23.8452 46.0044 23.7064C47.9561 21.6007 50.9353 20.8694 53.6165 21.8393C56.313 22.8143 58.1648 25.2552 58.285 28.121C58.3544 29.768 58.351 31.4217 58.2884 33.0687C58.2122 35.1 57.3523 36.8232 55.751 38.047C55.0079 38.6158 54.8116 39.1862 54.8285 40.0461C54.8404 40.6555 55.0418 40.8704 55.5902 41.0397C57.3659 41.5848 59.1314 42.1671 60.8833 42.7832C63.0009 43.528 64.3026 45.0379 64.8561 47.2046C64.8917 47.3417 64.9492 47.4737 64.9966 47.6091C64.9966 48.4978 64.9966 49.3865 64.9966 50.2751C64.7072 50.744 64.3263 51.0724 63.7457 50.876C63.1668 50.6814 63.0635 50.1905 63.0889 49.6404C63.1075 49.2392 63.1076 48.8363 63.0872 48.4352C63.0009 46.7797 62.2815 45.4374 60.7445 44.8094C58.7776 44.0053 56.7277 43.4078 54.6914 42.7138C53.9652 44.2135 52.87 45.1073 51.2078 45.1056C49.549 45.1022 48.4656 44.1915 47.753 42.7257C45.7505 43.396 43.7751 44.0087 41.8387 44.7247C40.7706 45.1191 40.0495 45.9452 39.6365 47.0556C40.5556 47.3671 41.4493 47.6277 42.3092 47.9697C44.6621 48.9074 45.9858 50.6526 46.2363 53.1798C46.2854 53.6758 46.2431 54.1802 46.2431 54.6999C50.1211 54.6999 53.8891 54.6999 57.723 54.6999C57.723 53.8941 57.657 53.129 57.7535 52.3825C57.7958 52.0575 58.109 51.6479 58.4069 51.5108C58.6422 51.4042 59.1145 51.5734 59.3447 51.7766C59.5393 51.9492 59.5935 52.3419 59.6104 52.6432C59.6477 53.3288 59.6223 54.0177 59.6223 54.7083C60.8393 54.7083 61.9514 54.7083 63.0737 54.7083C63.094 54.1599 63.2159 53.7079 63.7796 53.5285C64.3568 53.344 64.6784 53.7113 65.0017 54.0803C65.0017 54.7151 65.0017 55.3499 65.0017 55.9846C64.7376 56.4924 64.3229 56.6668 63.7525 56.66C61.8499 56.6363 59.9456 56.6516 58.0413 56.6516C54.3393 56.6516 50.6374 56.6617 46.9371 56.6397C46.3988 56.6363 46.2279 56.8039 46.2702 57.3219C46.3023 57.7197 46.2888 58.1293 46.2296 58.522C46.1568 59.001 45.8131 59.2634 45.3409 59.2668C44.8381 59.2719 44.5013 58.9977 44.4116 58.4898C44.371 58.263 44.3794 58.026 44.376 57.7941C44.3608 56.2724 44.4167 54.7456 44.3202 53.2272C44.222 51.6682 43.3943 50.463 41.9487 49.8943C39.9919 49.1241 37.9691 48.5198 35.9548 47.8376C35.2523 49.3729 34.1199 50.2447 32.4746 50.2379C30.8293 50.2311 29.724 49.3187 29.052 47.8833C28.9589 47.8969 28.9165 47.8986 28.8776 47.9104C27.1324 48.4842 25.3855 49.053 23.6437 49.6353C21.7344 50.2734 20.6544 51.7038 20.6358 53.7181C20.6087 56.7006 20.6273 59.6832 20.6307 62.6658C20.6307 62.7893 20.6578 62.9112 20.673 63.0449C21.8258 63.0449 22.9531 63.0449 24.0957 63.0449C24.1042 62.8757 24.1143 62.7504 24.1143 62.6268C24.116 60.9561 24.1092 59.2854 24.1194 57.613C24.1228 56.9647 24.4969 56.5686 25.0555 56.5635C25.609 56.5602 25.9898 56.9613 26.0152 57.5995C26.0305 57.9803 26.0186 58.3612 26.0186 58.7421C26.0186 60.1741 26.0186 61.6044 26.0186 63.0517C30.3706 63.0517 34.6514 63.0517 38.9814 63.0517C38.9814 61.2405 38.9763 59.4682 38.9831 57.696C38.9865 56.9952 39.3402 56.5788 39.9107 56.5635C40.5116 56.5483 40.8806 56.9698 40.8823 57.7061C40.8891 59.2719 40.884 60.8359 40.884 62.4017C40.884 62.6234 40.884 62.8452 40.884 63.0483C42.0993 63.0483 43.2098 63.0483 44.3236 63.0483C44.3659 62.8232 44.3371 62.576 44.4471 62.466C44.696 62.2155 45.0023 61.8922 45.307 61.8668C45.5812 61.8448 45.9943 62.1139 46.1534 62.3729C46.5427 63.0145 46.2397 64.4719 45.7031 65ZM29.0079 21.3146C27.0376 21.9764 25.0419 22.5858 23.0919 23.3204C21.6362 23.8689 20.607 25.5464 20.6747 26.8227C20.7763 28.7185 20.8169 30.6177 20.8813 32.5169C20.8897 32.781 20.8829 33.0451 20.8829 33.3159C22.4182 33.3159 23.8875 33.3159 25.3517 33.3159C25.8155 28.8607 29.2246 26.6517 32.2342 26.5518C33.8728 26.4977 35.3691 26.9496 36.6895 27.9263C38.4956 29.2618 39.4181 31.0984 39.6229 33.3193C41.143 33.3193 42.6139 33.3193 44.0849 33.3193C44.1103 33.2262 44.1408 33.1669 44.1424 33.1077C44.2068 30.9783 44.2694 28.8471 44.3236 26.716C44.3286 26.5078 44.2914 26.2928 44.2389 26.0914C43.8479 24.6069 42.9068 23.6217 41.4646 23.1258C40.3677 22.7483 39.259 22.3996 38.1553 22.0391C37.4207 21.7987 36.6844 21.5583 35.9582 21.3197C34.6277 24.353 30.5652 24.612 29.0079 21.3146ZM27.2543 9.14401C27.2695 9.14401 27.2848 9.1457 27.2983 9.1457C27.2983 9.88542 27.2814 10.6251 27.3017 11.3648C27.3728 13.9615 29.4514 16.1908 31.9617 16.3803C34.7445 16.5902 37.2193 14.8467 37.5578 12.1706C37.7931 10.3188 37.7846 8.40938 37.6408 6.54401C37.441 3.93893 35.2286 1.98216 32.6845 1.90937C30.0608 1.8349 27.823 3.62578 27.3965 6.23763C27.2458 7.18893 27.2966 8.17409 27.2543 9.14401ZM37.7525 35.6992C37.7355 35.6992 37.7169 35.6975 37.7 35.6975C37.7 34.9781 37.7152 34.2604 37.6966 33.541C37.6306 30.8615 35.5638 28.6829 32.8876 28.4595C30.2809 28.2411 27.779 30.0811 27.432 32.7116C27.2035 34.4365 27.2814 36.2104 27.3135 37.9624C27.3609 40.5217 29.4633 42.7273 31.9533 42.9203C34.7395 43.137 37.1346 41.3935 37.5815 38.7292C37.7457 37.7372 37.7017 36.7098 37.7525 35.6992ZM19.0582 30.5382C19.021 30.5365 18.982 30.5348 18.9448 30.5331C18.9448 29.7087 18.9956 28.881 18.9363 28.0617C18.7417 25.3771 16.4684 23.3272 13.7499 23.3374C11.0382 23.3475 8.75977 25.4245 8.62096 28.1193C8.53802 29.7426 8.54141 31.376 8.61758 32.9977C8.73945 35.5486 10.7876 37.5934 13.3301 37.8168C15.8387 38.0368 18.222 36.4017 18.7738 33.9337C19.0193 32.8352 18.9719 31.6723 19.0582 30.5382ZM56.5043 30.594C56.4671 30.5923 56.4315 30.5906 56.3943 30.5872C56.3943 29.7629 56.4383 28.9368 56.3858 28.1159C56.2131 25.4245 53.9618 23.3458 51.2501 23.3357C48.5299 23.3255 46.2262 25.3737 46.0721 28.0617C45.9756 29.7257 45.9807 31.4031 46.0704 33.0671C46.2076 35.5841 48.2659 37.6001 50.7829 37.8151C53.2611 38.0284 55.6562 36.4068 56.2098 33.9879C56.462 32.8927 56.4163 31.7281 56.5043 30.594ZM39.6094 35.2642C39.6094 36.0818 39.6077 36.7978 39.6094 37.5138C39.6195 40.0884 38.5836 42.1247 36.4982 43.638C36.3492 43.7463 36.1901 43.941 36.1698 44.1137C35.9497 45.8572 35.9937 45.913 37.678 46.4141C37.7118 46.4242 37.7542 46.4005 37.8286 46.3836C38.6581 44.2626 40.2915 43.0693 42.4548 42.465C43.6719 42.1247 44.8602 41.6745 46.0637 41.2835C47.6633 40.7638 47.6734 40.7672 47.5753 39.0999C47.5634 38.9069 47.4331 38.6564 47.2773 38.5464C46.1805 37.7728 45.3375 36.8012 44.7603 35.5875C44.6943 35.4487 44.4996 35.2811 44.3625 35.2794C42.8035 35.2557 41.2428 35.2642 39.6094 35.2642ZM25.4854 35.2642C23.7555 35.2642 22.1948 35.254 20.6358 35.2811C20.4902 35.2828 20.3227 35.4961 20.2076 35.6451C19.5897 36.4389 19.1005 37.3868 18.3405 38.003C17.5889 38.6107 17.2589 39.2065 17.4129 40.1172C17.4163 40.1375 17.4163 40.1595 17.4129 40.1798C17.3367 40.6318 17.5246 40.8467 17.9715 40.9872C19.803 41.5611 21.626 42.1637 23.444 42.7815C25.0656 43.3333 26.2336 44.4099 26.9784 45.9486C27.0596 46.1145 27.1443 46.2803 27.2272 46.4428C27.3254 46.4124 27.3863 46.3954 27.4473 46.3768C28.8505 45.9469 28.8336 45.9469 28.8573 44.4911C28.8641 44.0443 28.7337 43.7768 28.3613 43.5094C26.76 42.36 25.7359 40.8027 25.5125 38.8358C25.3788 37.6915 25.4854 36.5219 25.4854 35.2642ZM30.721 44.7772C30.7548 45.5135 30.726 46.277 30.8411 47.015C30.9664 47.8207 31.7349 48.3658 32.5305 48.3488C33.3074 48.3319 34.0539 47.7987 34.1538 47.0184C34.2503 46.2651 34.1741 45.4881 34.1741 44.7772C33.0535 44.7772 31.9482 44.7772 30.721 44.7772ZM30.721 18.2305C30.7582 18.9702 30.7328 19.7539 30.8547 20.5139C30.9749 21.2672 31.6993 21.7784 32.4594 21.8021C33.1737 21.8241 33.9743 21.3518 34.1064 20.6544C34.2587 19.8487 34.2367 19.0074 34.2875 18.2305C33.0332 18.2305 31.9245 18.2305 30.721 18.2305ZM12.0453 39.6568C12.0453 40.1341 12.0436 40.6589 12.047 41.1819C12.0487 41.3715 12.0419 41.5644 12.069 41.7506C12.1858 42.5699 12.8967 43.181 13.7363 43.1979C14.581 43.2148 15.3715 42.6444 15.4595 41.8302C15.5391 41.0888 15.4764 40.3322 15.4764 39.6568C14.3118 39.6568 13.2065 39.6568 12.0453 39.6568ZM49.5066 39.6568C49.5066 40.3118 49.4728 40.9872 49.5151 41.6559C49.5693 42.5225 50.2836 43.1658 51.152 43.1962C52.0271 43.2267 52.826 42.6444 52.9124 41.798C52.9868 41.0719 52.9276 40.3339 52.9276 39.6568C51.7833 39.6568 50.6763 39.6568 49.5066 39.6568Z" fill="white"/>
</svg>
