<svg width="45" height="75" viewBox="0 0 45 75" fill="none" xmlns="http://www.w3.org/2000/svg">
<path d="M26.5284 22.7252C29.7892 22.7252 32.9393 22.7252 36.0895 22.7252C38.2505 22.7252 40.4116 22.7372 42.5751 22.718C43.3909 22.7107 44.1538 22.7637 44.5941 23.5819C45.0297 24.3929 44.6784 25.0595 44.2211 25.743C37.5021 35.7974 30.7975 45.8591 24.0857 55.9184C20.1727 61.7831 16.2573 67.6478 12.3443 73.5125C12.2288 73.6882 12.1133 73.8638 11.993 74.0347C11.3745 74.9203 10.6477 75.1994 9.85837 74.8601C9.06903 74.5208 8.73453 73.794 8.92705 72.752C9.23508 71.0699 9.56718 69.3949 9.88244 67.7128C11.4058 59.61 12.9243 51.5072 14.4717 43.2673C14.1059 43.2673 13.793 43.2673 13.4802 43.2673C9.69714 43.2673 5.91408 43.2697 2.13343 43.2673C0.287628 43.2649 -0.381386 42.3504 0.208212 40.6081C4.60975 27.5743 9.0185 14.543 13.4272 1.51408C13.8412 0.293968 14.2527 0.00518534 15.5402 0.00277881C20.8851 0.000372291 26.2276 -0.00203423 31.5724 0.00277881C33.2979 0.00518534 33.9573 0.93651 33.3942 2.5922C31.2211 8.97671 29.0384 15.3564 26.8605 21.7385C26.7642 22.0201 26.6704 22.3016 26.5284 22.7252ZM13.6944 65.1979C13.7618 65.2268 13.8291 65.2581 13.8965 65.287C22.6057 52.2388 31.3149 39.1882 40.1204 25.9981C39.5814 25.9981 39.2589 25.9981 38.934 25.9981C34.2509 25.9981 29.5678 25.9283 24.8871 26.0317C22.9282 26.0751 22.2736 24.8237 22.844 23.2233C25.0845 16.9279 27.1974 10.5891 29.356 4.26473C29.4595 3.96392 29.5462 3.65829 29.6568 3.29972C25.1422 3.29972 20.7359 3.29972 16.2886 3.29972C12.1566 15.4984 8.03182 27.6802 3.86372 39.9848C4.39556 39.9848 4.72285 39.9848 5.05014 39.9848C8.74175 39.9848 12.4334 39.9776 16.125 39.9896C17.6218 39.9944 18.2908 40.7934 18.0189 42.2325C17.0418 47.4185 16.0552 52.5998 15.0757 57.7858C14.6113 60.2549 14.1564 62.7264 13.6944 65.1979Z" fill="white"/>
</svg>
