<svg width="68" height="67" viewBox="0 0 68 67" fill="none" xmlns="http://www.w3.org/2000/svg">
<path d="M64.3912 67C56.5228 67 48.6544 67 40.7861 67C40.7109 66.9615 40.6375 66.9108 40.557 66.8846C38.9291 66.3635 38.0566 65.185 38.0426 63.475C38.0374 62.7983 38.0322 62.1234 38.0444 61.4467C38.0636 60.3836 38.4063 59.3502 39.3296 58.8676C40.335 58.3413 40.3385 57.6069 40.279 56.7309C40.265 56.5351 40.2633 56.3375 40.2808 56.1417C40.3105 55.8059 40.2143 55.6084 39.8769 55.4318C38.6459 54.7848 38.0601 53.72 38.0426 52.3404C38.0357 51.7948 38.0409 51.2493 38.0409 50.7038C38.0426 48.2069 39.375 46.8867 41.8981 46.885C44.673 46.8832 47.448 46.885 50.2229 46.885C50.6128 46.885 51.0027 46.885 51.3786 46.885C51.7423 45.2466 51.2772 44.6486 49.6983 44.6486C38.9484 44.6486 28.1967 44.6486 17.4468 44.6486C17.1845 44.6486 16.9187 44.6364 16.6617 44.6748C16.1651 44.7518 15.7874 45.0193 15.721 45.5351C15.6668 45.9565 15.7105 46.3919 15.7105 46.8832C16.0077 46.8832 16.2665 46.8832 16.5253 46.8832C19.5188 46.8832 22.5123 46.8727 25.5057 46.8867C27.6844 46.8972 29.085 48.2943 29.1024 50.438C29.1077 51.1147 29.1164 51.7913 29.0989 52.4663C29.071 53.5014 28.7475 54.5155 27.8505 54.9999C26.8556 55.5367 26.7804 56.2711 26.8661 57.1838C26.8836 57.3779 26.8888 57.579 26.8643 57.7713C26.8189 58.1262 26.9692 58.3063 27.2875 58.4707C28.2597 58.969 28.9188 59.7803 29.0185 60.8609C29.1217 61.9817 29.1409 63.1323 29.0063 64.2478C28.8227 65.7603 27.7333 66.5506 26.3608 66.9983C18.4924 66.9983 10.624 66.9983 2.75567 66.9983C1.32888 66.5908 0.405658 65.6799 0.00174852 64.2513C0.00174852 63.0728 0.00174852 61.8943 0.00174852 60.7176C0.410903 60.0968 0.681925 59.2453 1.25719 58.9043C2.22937 58.3308 2.33428 57.5964 2.23811 56.6645C2.21363 56.4284 2.26084 56.1836 2.22412 55.9511C2.20139 55.8042 2.12096 55.5961 2.00905 55.5454C0.933712 55.0681 0.381178 54.1711 0 53.1255C0 51.947 0 50.7685 0 49.5917C0.666188 47.5407 2.12621 46.808 4.21744 46.8675C7.01158 46.9462 9.81097 46.8867 12.6086 46.8867C12.8621 46.8867 13.1157 46.8867 13.3832 46.8867C13.3989 46.6419 13.4269 46.4916 13.4164 46.3429C13.2433 43.9614 14.8782 42.3441 17.4363 42.3913C22.1765 42.4804 26.9203 42.4158 31.6623 42.4158C31.9123 42.4158 32.1624 42.4158 32.3932 42.4158C32.3932 41.246 32.3932 40.1899 32.3932 39.0866C32.0784 39.0866 31.8196 39.0866 31.5609 39.0866C25.7051 39.0866 19.8475 39.0883 13.9917 39.0866C7.88759 39.0848 3.12461 34.9198 2.31505 28.8822C1.51247 22.883 6.03241 16.987 12.0491 16.2351C12.5929 16.1669 12.7555 15.9553 12.8866 15.471C14.5495 9.34591 20.5329 5.43971 26.8031 6.38391C27.2577 6.4521 27.5008 6.32271 27.7736 5.96776C30.6481 2.24166 34.4582 0.185392 39.1565 0.0105397C46.4461 -0.26223 52.9086 4.78751 54.5452 11.9023C54.6414 12.3236 54.8337 12.4968 55.2411 12.6174C63.2599 14.9814 67.0227 23.6244 63.7897 31.0049C61.4781 36.2802 57.21 38.9677 51.4468 39.0673C46.1383 39.16 40.8263 39.0866 35.5178 39.0866C35.2642 39.0866 35.009 39.0866 34.7362 39.0866C34.7362 40.2336 34.7362 41.2897 34.7362 42.4158C35.0334 42.4158 35.2905 42.4158 35.5458 42.4158C40.3962 42.4158 45.2483 42.4105 50.0987 42.4175C52.3036 42.421 53.6902 43.8076 53.7217 46.0142C53.7252 46.287 53.7217 46.5615 53.7217 46.885C54.0819 46.885 54.3406 46.885 54.5994 46.885C57.5719 46.885 60.5427 46.8867 63.5152 46.8832C64.9996 46.8815 66.1344 47.4655 66.8164 48.8188C66.9423 49.0671 67.0349 49.3329 67.1416 49.5899C67.1416 50.7684 67.1416 51.947 67.1416 53.1237C66.7447 53.7532 66.4911 54.6537 65.9194 54.9562C64.823 55.5367 64.865 56.3707 64.907 57.3149C64.9157 57.5317 64.8877 57.7521 64.9175 57.9636C64.935 58.0965 64.9996 58.2906 65.0958 58.3326C66.1799 58.7907 66.7307 59.6929 67.1433 60.7176C67.1433 61.8961 67.1433 63.0746 67.1433 64.2513C66.7377 65.6764 65.8215 66.5943 64.3912 67ZM34.7362 36.8117C34.9652 36.8257 35.1576 36.8467 35.3499 36.8467C40.7476 36.8484 46.1471 36.8677 51.5448 36.8292C52.5379 36.8222 53.5591 36.6823 54.519 36.4236C59.5547 35.0667 62.793 30.5485 62.6741 25.1386C62.564 20.1063 58.997 15.721 54.0294 14.6387C52.9313 14.3991 52.6323 13.7924 52.4505 12.815C51.3559 6.92246 46.0946 2.36056 40.1094 2.23816C35.4181 2.14199 31.7217 4.13706 29.057 8.00479C28.48 8.84234 28.2334 8.96124 27.3259 8.75141C22.3199 7.59564 17.3016 10.2009 15.4132 14.9692C15.1352 15.6721 14.9726 16.4257 14.8135 17.1688C14.6317 18.0116 14.3589 18.2774 13.5108 18.3421C13.0108 18.3805 12.5054 18.4173 12.0159 18.5169C7.33681 19.4664 4.05483 23.7398 4.50595 28.2772C5.00078 33.257 8.88425 36.838 13.8343 36.8467C19.8003 36.8589 25.768 36.8502 31.734 36.8502C31.9473 36.8502 32.1589 36.8502 32.4072 36.8502C32.4072 35.6944 32.4072 34.6191 32.4072 33.4895C32.1256 33.4895 31.8896 33.4895 31.6535 33.4895C29.3158 33.4895 26.9762 33.5018 24.6385 33.4843C22.8829 33.4703 21.5086 32.2376 21.2883 30.5066C21.2446 30.1621 21.2323 29.8054 21.2691 29.4627C21.3163 29.0186 21.1449 28.8297 20.7288 28.6636C18.342 27.7124 17.2632 25.0249 18.3053 22.7081C19.1411 20.8495 21.054 19.8318 23.1417 20.1361C25.0721 20.4176 26.5811 22.0332 26.8433 24.1C27.0794 25.9691 25.9201 27.8908 24.1052 28.6584C23.8953 28.7475 23.6016 28.842 23.5299 29.0116C23.0333 30.1673 23.7712 31.2584 25.0179 31.2584C27.2682 31.2602 29.5203 31.2584 31.7707 31.2584C31.9823 31.2584 32.1921 31.2584 32.4544 31.2584C32.4544 30.9769 32.4544 30.7828 32.4544 30.5887C32.4544 27.6215 32.4456 24.6542 32.4631 21.6887C32.4666 21.2341 32.3425 21.0121 31.8931 20.832C29.9068 20.0399 28.7737 17.9504 29.1741 15.9204C29.6025 13.7522 31.393 12.2625 33.5734 12.2625C35.7538 12.2625 37.5426 13.7452 37.9762 15.9169C38.3801 17.9399 37.2471 20.0364 35.2607 20.8302C34.8131 21.0086 34.6855 21.2289 34.689 21.6852C34.7082 24.6525 34.6977 27.6197 34.7012 30.5852C34.7012 30.7933 34.7292 31.0031 34.7467 31.2567C35.3657 31.2567 35.9304 31.2567 36.4952 31.2567C38.4623 31.2567 40.4294 31.2637 42.3965 31.2532C43.1064 31.2497 43.5348 30.8807 43.6414 30.2443C43.811 29.2319 43.6904 28.9346 42.9875 28.6321C41.0554 27.7998 39.987 25.7558 40.3857 23.6488C40.7686 21.6258 42.5416 20.1413 44.6591 20.0731C46.7293 20.0067 48.5618 21.3985 49.0968 23.4443C49.6214 25.4446 48.6772 27.6197 46.7748 28.487C46.0666 28.8105 45.8516 29.1532 45.869 29.9156C45.918 32.0697 44.472 33.479 42.316 33.4843C40.022 33.4895 37.7262 33.486 35.4321 33.486C35.2013 33.486 34.9705 33.486 34.7379 33.486C34.7362 34.6453 34.7362 35.7067 34.7362 36.8117ZM42.5259 53.5923C42.5259 53.1464 42.4944 52.7758 42.5329 52.4121C42.5993 51.7721 43.0679 51.3682 43.6711 51.3804C44.2831 51.3944 44.7045 51.8106 44.743 52.4663C44.764 52.8247 44.7465 53.1867 44.7465 53.5608C45.5491 53.5608 46.238 53.5608 47.0073 53.5608C47.0073 53.1534 46.9776 52.7845 47.0143 52.4208C47.0808 51.7686 47.5301 51.3699 48.1386 51.3787C48.7454 51.3874 49.1738 51.7983 49.221 52.4575C49.2472 52.8177 49.2262 53.1814 49.2262 53.4961C49.3766 53.5573 49.4151 53.5888 49.4553 53.5888C54.2147 53.5941 58.9742 53.6046 63.7337 53.5906C64.4856 53.5888 64.8825 53.1325 64.907 52.3788C64.9245 51.856 64.9105 51.3332 64.9105 50.8104C64.9105 49.4238 64.6115 49.1231 63.2197 49.1231C56.1451 49.1231 49.0706 49.1231 41.9961 49.1231C41.8002 49.1231 41.6026 49.1161 41.4068 49.1353C40.7161 49.2 40.3157 49.5795 40.2878 50.2649C40.258 51.0045 40.2563 51.7476 40.2912 52.4873C40.321 53.1342 40.7214 53.5241 41.3736 53.5871C41.7163 53.6185 42.0643 53.5923 42.5259 53.5923ZM11.2395 53.6046C11.5105 53.6046 11.7448 53.6046 11.9809 53.6046C14.6019 53.6046 17.223 53.6046 19.8458 53.6046C21.68 53.6046 23.5159 53.6081 25.3501 53.6028C26.5024 53.5993 26.8643 53.2269 26.8696 52.0606C26.8713 51.6689 26.8696 51.2755 26.8696 50.8839C26.8696 49.4063 26.5898 49.1248 25.1123 49.1248C18.078 49.1248 11.0437 49.1248 4.00937 49.1248C3.7908 49.1248 3.57049 49.1161 3.35367 49.1353C2.663 49.2 2.26784 49.5882 2.24336 50.2719C2.21888 50.9905 2.22063 51.7109 2.24336 52.4295C2.26434 53.1167 2.65251 53.5241 3.33444 53.5871C3.69463 53.6203 4.06182 53.5923 4.47972 53.5923C4.47972 53.1464 4.45174 52.774 4.48671 52.4086C4.54791 51.7721 5.01826 51.3647 5.625 51.3787C6.23873 51.3927 6.66363 51.8123 6.70035 52.4645C6.71958 52.8247 6.70384 53.1849 6.70384 53.5643C7.49767 53.5643 8.18834 53.5643 8.89999 53.5643C9.03987 52.6778 8.6517 51.4941 10.082 51.3892C10.8391 51.335 11.0332 51.7336 11.2395 53.6046ZM42.5189 64.7671C42.5189 64.344 42.5014 64.0153 42.5224 63.6918C42.5713 62.9731 43.0417 62.5203 43.6904 62.5448C44.3198 62.5692 44.7203 63.0064 44.7482 63.718C44.7622 64.0572 44.75 64.3964 44.75 64.7304C45.5508 64.7304 46.2415 64.7304 46.9496 64.7304C47.0895 63.8596 46.6996 62.6165 48.0687 62.5762C49.5567 62.5343 49.1335 63.8562 49.2647 64.6937C49.3591 64.7287 49.3976 64.7566 49.4378 64.7566C54.2025 64.7601 58.9655 64.7689 63.7302 64.7584C64.4629 64.7566 64.8825 64.2968 64.9052 63.5467C64.9227 62.9574 64.9105 62.3682 64.9087 61.7807C64.9052 60.6616 64.5468 60.3049 63.412 60.3049C58.8886 60.3032 54.3651 60.3049 49.8399 60.3049C47.086 60.3049 44.3321 60.3014 41.5799 60.3084C40.7371 60.3102 40.3052 60.7141 40.2825 61.5236C40.2633 62.2213 40.2563 62.9207 40.2878 63.6166C40.3192 64.323 40.7529 64.7287 41.4645 64.7636C41.788 64.7811 42.1115 64.7671 42.5189 64.7671ZM11.215 64.7077C11.3217 64.7392 11.3637 64.7619 11.4039 64.7619C16.1651 64.7654 20.9263 64.7724 25.6876 64.7619C26.394 64.7601 26.8259 64.3213 26.8608 63.6149C26.8906 63.0064 26.8731 62.3944 26.8696 61.7841C26.8643 60.6703 26.4989 60.3102 25.3676 60.3084C21.7866 60.3067 18.2039 60.3084 14.6229 60.3084C10.9755 60.3084 7.32807 60.3066 3.68064 60.3101C2.60006 60.3101 2.24161 60.6791 2.23811 61.7719C2.23636 62.3821 2.22063 62.9941 2.24336 63.6026C2.26958 64.3073 2.69448 64.7287 3.39913 64.7654C3.74009 64.7829 4.0828 64.7689 4.43426 64.7689C4.54966 63.8457 4.18247 62.6199 5.54807 62.5797C7.03956 62.536 6.59543 63.8631 6.75105 64.7252C7.49418 64.7252 8.20233 64.7252 8.90349 64.7252C9.05386 62.9819 9.27942 62.5115 10.0435 62.557C11.4983 62.6392 11.0891 63.8264 11.215 64.7077ZM24.5965 55.8969C17.8769 55.8969 11.1923 55.8969 4.51469 55.8969C4.51469 56.6417 4.51469 57.3272 4.51469 58.0283C11.229 58.0283 17.8979 58.0283 24.5965 58.0283C24.5965 57.2974 24.5965 56.6103 24.5965 55.8969ZM42.5486 58.0196C49.2996 58.0196 55.9703 58.0196 62.6339 58.0196C62.6339 57.2747 62.6339 56.5875 62.6339 55.8846C55.9213 55.8846 49.2507 55.8846 42.5486 55.8846C42.5486 56.6155 42.5486 57.3009 42.5486 58.0196ZM20.1605 24.5773C20.1727 25.8205 21.1956 26.8207 22.4248 26.7909C23.6261 26.7612 24.621 25.7541 24.6262 24.5598C24.6332 23.3306 23.6191 22.3287 22.3741 22.3322C21.1152 22.3357 20.1482 23.3166 20.1605 24.5773ZM46.9864 24.5756C46.9968 23.3166 46.0264 22.3357 44.7675 22.334C43.5225 22.3322 42.5101 23.3359 42.5189 24.5651C42.5276 25.7611 43.5225 26.7665 44.722 26.7927C45.953 26.8189 46.9759 25.817 46.9864 24.5756ZM35.8045 16.7562C35.815 15.513 34.8236 14.5093 33.5804 14.5058C32.3599 14.5023 31.3668 15.4657 31.3423 16.6757C31.3161 17.9224 32.2935 18.9418 33.5332 18.961C34.7782 18.9785 35.794 17.9941 35.8045 16.7562Z" fill="white"/>
</svg>
