<svg width="87" height="77" viewBox="0 0 87 77" fill="none" xmlns="http://www.w3.org/2000/svg">
<path d="M0 42.2619C0.733373 39.991 2.36197 39.2003 4.65312 39.2627C7.56807 39.3419 10.4864 39.2762 13.403 39.2846C16.1544 39.2913 17.6111 40.748 17.6262 43.4876C17.6296 43.9563 17.6262 44.4249 17.6262 44.983C18.0477 44.983 18.3765 44.983 18.7035 44.983C24.2013 44.983 29.6991 45.0201 35.1951 44.9661C37.5571 44.9425 39.4723 45.7045 41.1178 47.4208C43.7377 50.1537 46.479 52.7702 49.1225 55.4812C49.93 56.3089 50.5825 57.2868 51.4322 58.354C52.7877 58.0185 54.4078 57.6223 56.0246 57.216C63.9248 55.2249 71.825 53.2288 79.7252 51.2343C82.131 50.6274 84.2603 51.4839 85.4927 53.5609C86.629 55.4744 86.3138 57.8684 84.6565 59.5965C84.3345 59.9337 83.9214 60.2102 83.5033 60.4226C79.6881 62.3732 75.8628 64.3052 72.0391 66.239C71.7913 66.3654 71.4979 66.5863 71.272 66.5391C70.7966 66.4396 70.2251 66.3064 69.9233 65.976C69.5103 65.5225 69.6485 64.9021 70.1172 64.4705C70.3583 64.2479 70.6752 64.0996 70.9736 63.9495C74.6675 62.068 78.3664 60.1967 82.0585 58.3135C83.3668 57.6476 83.8877 56.5214 83.4865 55.2755C83.0852 54.0279 81.9405 53.3653 80.6558 53.684C72.4218 55.7307 64.1929 57.7892 55.9606 59.8393C54.6287 60.1714 53.2934 60.4816 51.9565 60.7935C51.5283 60.893 51.2653 61.0464 51.1102 61.5538C49.9772 65.2831 45.3326 66.6149 42.4935 63.9478C39.5718 61.2015 36.79 58.3084 33.9627 55.4626C33.3457 54.8422 33.339 54.1189 33.8582 53.5963C34.4045 53.0467 35.121 53.072 35.7886 53.7362C38.4557 56.3848 41.1093 59.0469 43.763 61.7089C44.5621 62.5114 45.4573 62.9666 46.6324 62.6952C48.5577 62.2501 49.4529 60.0264 48.3335 58.3944C48.0975 58.0505 47.8108 57.7352 47.5158 57.4385C44.7037 54.6163 41.868 51.821 39.0795 48.9752C38.0899 47.9654 36.962 47.5017 35.5576 47.5068C29.8929 47.5304 24.2266 47.5169 18.5602 47.5169C18.2871 47.5169 18.0123 47.5169 17.6852 47.5169C17.6616 47.8423 17.6279 48.0851 17.6279 48.3295C17.6245 53.0703 17.6347 57.8111 17.6144 62.5519C17.6111 63.1622 17.751 63.4117 18.4152 63.5145C22.4328 64.1383 26.4368 64.8329 30.1222 66.6857C34.3252 68.7999 38.5501 70.8702 42.716 73.0551C46.1418 74.8523 49.5052 74.8759 52.9242 73.1243C57.0867 70.9916 61.2577 68.8724 65.4287 66.7566C66.3306 66.298 67.037 66.4565 67.3995 67.1477C67.7721 67.8575 67.4619 68.5554 66.5329 69.0309C62.1445 71.2765 57.7948 73.6014 53.3491 75.7273C49.5895 77.5245 45.7473 77.3812 41.9978 75.5301C36.9772 73.0518 31.9987 70.4875 26.9308 68.1137C24.0479 66.7616 20.848 66.5003 17.6279 65.9541C17.6279 67.5236 17.6954 69.0073 17.6009 70.4807C17.5487 71.2934 17.3683 72.1667 16.989 72.8764C16.382 74.0127 15.2794 74.5607 13.983 74.5691C10.5336 74.5893 7.08253 74.6045 3.63315 74.564C1.98432 74.5438 0.846329 73.6756 0.217483 72.1481C0.15679 71.9998 0.0724943 71.8615 0 71.7182C0 67.0617 0 62.4035 0 57.747C0.301779 57.4705 0.556352 57.071 0.91208 56.9395C1.80224 56.6107 2.52381 57.2783 2.5255 58.3894C2.53562 62.3732 2.52887 66.357 2.53056 70.3391C2.53056 71.7047 2.86605 72.047 4.19961 72.0486C7.25618 72.052 10.3144 72.0503 13.371 72.0486C14.7636 72.047 15.0872 71.7216 15.0872 70.2953C15.0889 61.3751 15.0906 52.4533 15.0872 43.5331C15.0872 42.1624 14.7551 41.8253 13.4047 41.8236C10.3481 41.8168 7.28989 41.8185 4.23333 41.8236C2.86605 41.8253 2.53224 42.1608 2.53056 43.5061C2.52719 46.4801 2.52381 49.454 2.53393 52.4263C2.5373 53.1495 2.42097 53.7986 1.63365 54.0397C0.849701 54.2791 0.3591 53.8441 0 53.2035C0 49.5569 0 45.9085 0 42.2619Z" fill="black"/>
<path d="M46.5937 45.1265C43.2573 45.2141 41.1584 42.2807 42.5324 39.6287C44.6195 35.6011 46.5988 31.5178 48.6253 27.4581C52.8013 19.0892 56.9756 10.7187 61.1567 2.35315C62.2306 0.20529 64.0699 -0.514595 66.1605 0.368824C68.401 1.31631 69.1816 3.54172 68.047 5.81264C64.805 12.3017 61.5529 18.7858 58.3058 25.2715C57.8287 26.2223 57.36 27.1782 56.8761 28.1257C56.3889 29.0799 55.7331 29.3902 55.0081 29.0277C54.2883 28.6669 54.1348 27.9436 54.612 26.9911C57.9248 20.3823 61.2427 13.7752 64.5572 7.16812C64.9837 6.31673 65.4069 5.46366 65.8098 4.60215C66.2144 3.73728 65.9936 3.07809 65.2079 2.71224C64.4273 2.34977 63.8929 2.55546 63.4546 3.43382C57.2454 15.859 51.0395 28.2842 44.837 40.7111C44.4577 41.4697 44.6583 42.1306 45.3411 42.483C46.0256 42.8353 46.7758 42.5858 47.1653 41.817C48.7349 38.7183 50.2859 35.6112 51.8437 32.5074C52.4439 31.3138 53.1014 30.9395 53.8786 31.3509C54.6389 31.7538 54.7131 32.4417 54.1197 33.6252C52.5889 36.6784 51.0462 39.7282 49.5272 42.7881C48.7837 44.2768 47.6205 45.0911 46.5937 45.1265Z" fill="black"/>
<path d="M31.6509 13.9706C31.6509 12.5696 31.5953 11.1653 31.661 9.76766C31.8616 5.52758 33.9201 3.07626 38.0793 2.25522C40.453 1.78654 42.8184 1.93996 45.0674 2.97679C47.5339 4.11479 48.9484 6.10754 49.0832 8.73756C49.2653 12.2561 49.2198 15.7948 49.0984 19.3184C48.9989 22.1878 46.9472 24.6189 44.0424 25.4736C41.2842 26.2846 38.5142 26.2711 35.837 25.0808C33.4582 24.0237 32.0842 22.1288 31.8195 19.5932C31.6256 17.7387 31.7824 15.8471 31.7824 13.9723C31.7369 13.9706 31.6947 13.9706 31.6509 13.9706ZM46.6285 14.0853C46.6269 14.0853 46.6252 14.0853 46.6235 14.0853C46.6235 12.4617 46.7078 10.8315 46.6016 9.21468C46.4751 7.27588 45.5108 5.8243 43.6411 5.1061C41.9468 4.45534 40.1917 4.42162 38.4299 4.75375C35.8539 5.24098 34.3349 6.83248 34.232 9.46251C34.114 12.4837 34.1157 15.5149 34.227 18.5361C34.3247 21.1982 35.7679 22.8284 38.3962 23.228C39.8057 23.4421 41.3027 23.405 42.7172 23.1926C45.0286 22.8453 46.5139 21.0515 46.6168 18.7047C46.6825 17.1671 46.6285 15.6245 46.6285 14.0853Z" fill="black"/>
<path d="M78.6258 31.5716C78.6258 33.2795 78.7135 34.9924 78.6073 36.6918C78.4151 39.7534 76.4931 42.1507 73.5192 42.9937C70.729 43.7861 67.927 43.7793 65.2363 42.5334C62.8406 41.4241 61.4413 39.4583 61.3098 36.8907C61.1277 33.3166 61.1024 29.7188 61.3132 26.148C61.4936 23.0932 63.3346 21.0094 66.2478 20.0956C69.0498 19.2173 71.8839 19.2543 74.6133 20.5002C77.0191 21.5978 78.3409 23.5416 78.5786 26.1143C78.7438 27.9183 78.6107 29.7492 78.6107 31.5699C78.614 31.5716 78.6191 31.5716 78.6258 31.5716ZM76.1307 31.575C76.1256 31.575 76.1189 31.575 76.1138 31.575C76.1138 29.8958 76.2032 28.2099 76.0885 26.5392C75.9739 24.8381 75.1158 23.4792 73.5209 22.7762C71.3275 21.8085 69.0515 21.8034 66.8025 22.5908C64.9514 23.2382 63.8707 24.6543 63.7999 26.5628C63.6768 29.8604 63.6768 33.1699 63.7982 36.4675C63.8673 38.3709 64.9379 39.7635 66.784 40.453C68.5154 41.0987 70.2923 41.0954 72.076 40.7498C74.4751 40.2861 75.8997 38.8025 76.1037 36.3596C76.2386 34.7749 76.1307 33.1699 76.1307 31.575Z" fill="black"/>
<path d="M44.2883 14.0464C44.2883 15.503 44.3541 16.963 44.2715 18.4146C44.1788 20.0482 43.2009 21.1188 41.5791 21.3869C40.8221 21.5116 40.0112 21.5099 39.2559 21.3852C37.7521 21.134 36.8973 20.1915 36.6545 18.6978C36.5921 18.3117 36.5534 17.9189 36.5517 17.5278C36.5433 15.1743 36.5281 12.819 36.5517 10.4655C36.5871 7.08861 39.787 5.32683 42.7289 7.04983C43.6662 7.59944 44.2175 8.4424 44.2631 9.51127C44.3271 11.0202 44.2799 12.5341 44.2799 14.0464C44.2816 14.0464 44.285 14.0464 44.2883 14.0464ZM39.0873 14.0649C39.0873 15.3243 39.0654 16.5854 39.094 17.8447C39.116 18.7771 39.4312 19.0215 40.4411 19.0097C41.4594 18.9979 41.7831 18.7568 41.7915 17.8414C41.8151 15.294 41.8151 12.7465 41.7932 10.1991C41.7848 9.2685 41.4965 9.06113 40.4411 9.05607C39.3874 9.05101 39.1143 9.2567 39.094 10.2025C39.0654 11.4888 39.0856 12.7769 39.0873 14.0649Z" fill="black"/>
<path d="M73.8694 31.5145C73.8694 32.7756 73.8896 34.0367 73.8626 35.2977C73.8323 36.7594 73.3872 38.0424 71.9238 38.6426C70.302 39.3068 68.6818 39.2714 67.2235 38.1857C66.4884 37.6378 66.1479 36.8083 66.1395 35.908C66.1108 32.9948 66.0872 30.0815 66.1445 27.1683C66.1765 25.5717 67.1358 24.4539 68.6987 24.1707C69.5062 24.024 70.3863 24.0207 71.1921 24.1758C72.8882 24.4995 73.7514 25.6813 73.8609 27.5661C73.866 27.6504 73.8694 27.7347 73.8694 27.8173C73.8711 29.048 73.8711 30.2821 73.8694 31.5145ZM68.6262 31.5095C68.6279 31.5095 68.6279 31.5095 68.6296 31.5095C68.6296 32.7975 68.6144 34.0872 68.6346 35.3736C68.6498 36.2671 68.9364 36.5048 69.9058 36.515C70.919 36.5268 71.3186 36.252 71.3253 35.4039C71.3489 32.8279 71.3489 30.2501 71.327 27.674C71.3186 26.7653 70.9662 26.5327 69.8502 26.558C68.8639 26.5816 68.6447 26.7738 68.6296 27.728C68.6127 28.989 68.6262 30.2501 68.6262 31.5095Z" fill="black"/>
</svg>
