<svg width="78" height="77" viewBox="0 0 78 77" fill="none" xmlns="http://www.w3.org/2000/svg">
<path fill-rule="evenodd" clip-rule="evenodd" d="M77.7585 54.1814C77.823 53.7382 77.8875 53.295 77.9635 52.855C77.9635 51.5938 77.9635 50.3326 77.9676 49.0653C77.9366 48.8757 77.9062 48.6858 77.8759 48.496C77.8151 48.1161 77.7544 47.7362 77.6883 47.3581C75.8587 36.9736 69.9349 30.0439 60.0059 26.5427C59.1782 26.2521 58.7815 25.8041 58.5184 24.9929C58.9702 24.9929 59.4166 24.9968 59.8592 25.0007C60.8026 25.009 61.7288 25.0171 62.6531 24.9868C66.2677 24.8718 69.2407 21.8489 69.3237 18.2448C69.4128 14.3481 66.3608 11.1335 62.4568 11.0911C59.8165 11.0642 57.1752 11.0701 54.5343 11.076C53.4141 11.0785 52.2939 11.081 51.1738 11.081H50.2813C50.3161 11.0129 50.3451 10.9557 50.3704 10.9059C50.4231 10.802 50.4596 10.7301 50.4979 10.6592C53.1552 5.69301 49.8583 0.192018 44.2057 0.187982C32.012 0.17991 19.8183 0.177892 7.62667 0.204126C6.76046 0.206144 5.8558 0.347402 5.03614 0.623864C1.92751 1.67321 -0.0396724 4.93223 0.460218 8.05404C1.0188 11.529 3.76921 14.0454 7.17737 14.0938C9.6449 14.1288 12.1134 14.1221 14.5822 14.1153C15.6732 14.1123 16.7642 14.1094 17.8552 14.11H19.4581C17.8876 16.7576 17.8916 19.3385 19.4621 21.9881C18.99 21.9881 18.5298 21.9846 18.0777 21.9812C17.1189 21.9738 16.1969 21.9668 15.2768 21.9942C11.0915 22.1193 7.94644 26.0362 8.69324 30.1448C9.00289 31.85 9.86707 33.2262 11.1947 34.3886C9.52706 35.8536 8.59002 37.6355 8.58597 39.831C8.58193 42.0468 9.54325 43.8408 11.1927 45.2957C9.48052 46.7991 8.57181 48.5931 8.58597 50.7947C8.60014 52.9842 9.55945 54.754 11.1967 56.1948C9.60397 57.565 8.70133 59.2177 8.59609 61.2316C8.38561 65.2595 11.5044 68.565 15.5602 68.5851C20.79 68.611 26.0198 68.5996 31.2495 68.5882C31.725 68.5872 32.2004 68.5861 32.6759 68.5851C33.1575 68.5851 33.5097 68.7002 33.872 69.0533C40.2876 75.311 47.966 77.9929 56.7799 76.2837C67.5468 74.1971 74.3307 67.558 77.2309 56.9979C77.482 56.0803 77.6203 55.1308 77.7585 54.1814ZM74.9338 51.0086C74.952 63.52 64.7478 73.733 52.2202 73.739C39.6946 73.7451 29.4822 63.5422 29.4883 51.0288C29.4944 38.5113 39.7108 28.3205 52.2384 28.3367C64.7377 28.3528 74.9156 38.5194 74.9338 51.0086ZM20.9257 3.21202C22.6055 3.21247 24.2852 3.21292 25.9648 3.21292C27.8818 3.21292 29.7987 3.21194 31.7157 3.21095C35.933 3.20878 40.1503 3.20662 44.3676 3.21494C47.114 3.22099 49.0023 5.68292 48.2615 8.24776C47.7819 9.91259 46.2701 11.0608 44.4769 11.077C42.9388 11.0913 41.4017 11.0883 39.8642 11.0854C39.2309 11.0842 38.5976 11.083 37.9642 11.083C35.4339 11.083 32.9035 11.0831 30.3731 11.0833C22.7815 11.0836 15.1894 11.084 7.59834 11.081C5.28912 11.079 3.53242 9.49487 3.43528 7.3538C3.33004 5.05533 5.109 3.22099 7.48702 3.21696C11.966 3.20962 16.4461 3.21082 20.9257 3.21202ZM48.8369 21.981C47.1637 21.9805 45.4904 21.9801 43.8171 21.9801C41.6616 21.9794 39.5058 21.9804 37.3499 21.9814C33.3463 21.9833 29.3424 21.9852 25.3394 21.976C22.5971 21.968 20.7169 19.4879 21.4698 16.923C21.9231 15.3793 23.356 14.229 24.967 14.1201C25.0419 14.114 25.1188 14.112 25.1937 14.112C28.4988 14.112 31.8038 14.1114 35.1089 14.1108C44.1979 14.1093 53.2869 14.1077 62.3758 14.118C64.6486 14.1201 66.3891 15.9948 66.292 18.2367C66.2009 20.3556 64.4584 21.972 62.218 21.976C57.7584 21.9834 53.2978 21.9822 48.8369 21.981ZM53.7968 25.12C53.7988 25.1523 53.8028 25.1846 53.8069 25.2169C53.2696 25.2538 52.7313 25.282 52.1932 25.3102C50.9962 25.3729 49.7997 25.4356 48.6157 25.5943C43.1938 26.3127 38.5167 28.6313 34.5398 32.3625C34.1411 32.7379 33.7546 32.8912 33.2102 32.8892C30.198 32.8799 27.1858 32.8801 24.1736 32.8804C21.3287 32.8807 18.4839 32.8809 15.6391 32.8731C12.9292 32.865 11.0591 30.4374 11.7594 27.8887C12.1965 26.2965 13.6314 25.1241 15.2788 25.0171C15.457 25.0044 15.6364 25.0054 15.8151 25.0065C15.8638 25.0067 15.9124 25.007 15.9609 25.007C18.378 25.007 20.7951 25.0069 23.2123 25.0069C32.8876 25.0065 42.563 25.0062 52.2384 25.0111C52.595 25.0111 52.9506 25.0443 53.3066 25.0775C53.4699 25.0927 53.6332 25.108 53.7968 25.12ZM31.1777 35.9281C31.222 35.9353 31.2768 35.9442 31.3482 35.9545C29.8991 38.0209 28.7536 40.1358 27.9502 42.4302C27.476 43.7762 27.4665 43.7762 26.0082 43.7762H25.9951C25.0093 43.7762 24.0234 43.7776 23.0375 43.7791C20.5181 43.7827 17.9986 43.7864 15.4792 43.7661C13.5485 43.75 11.9678 42.3354 11.6501 40.4304C11.3465 38.6142 12.4616 36.7496 14.2467 36.1422C14.6454 36.007 15.0825 35.9182 15.5015 35.9162C19.8774 35.9025 24.2519 35.9048 28.6262 35.907C29.4209 35.9074 30.2156 35.9078 31.0102 35.9081C31.0553 35.9081 31.1004 35.9155 31.1777 35.9281ZM23.7901 57.6959C24.8958 57.6991 25.9918 57.7022 27.0738 57.7022L27.3535 58.3109C28.4925 60.7898 29.5841 63.1656 30.6844 65.5501C30.7269 65.5461 30.6378 65.5642 30.5488 65.5642C29.1858 65.5648 27.8228 65.5667 26.4598 65.5686C22.8259 65.5736 19.192 65.5787 15.5581 65.5582C12.6863 65.542 10.798 62.6644 11.9435 60.0774C12.5891 58.6164 13.761 57.7426 15.3598 57.7204C18.189 57.68 21.0203 57.6881 23.7901 57.6959ZM26.6084 46.8011V54.6712H20.1057C19.636 54.6712 19.1661 54.6724 18.6961 54.6736C17.6777 54.6763 16.6589 54.6789 15.6411 54.6692C13.3623 54.649 11.6116 52.9317 11.6116 50.7362C11.6116 48.5406 13.3643 46.8132 15.6411 46.8052C18.1338 46.7952 20.6255 46.7973 23.1175 46.7994C24.1562 46.8003 25.195 46.8011 26.2339 46.8011H26.6084ZM58.5045 59.4147C59.656 58.3209 60.2318 56.9883 60.2318 55.4171C60.2318 54.1443 59.9151 53.13 59.2818 52.3742C58.6676 51.5985 57.9095 51.0218 57.0075 50.6439C56.1055 50.2461 54.9539 49.8682 53.5529 49.5103V42.5592C55.261 42.6587 56.8923 43.2155 58.4469 44.2299L59.3969 41.8432C58.6484 41.3063 57.756 40.8786 56.7196 40.5604C55.7024 40.2422 54.6468 40.0632 53.5529 40.0234V36.6523H51.7104V40.0533C49.5801 40.2323 47.9583 40.8687 46.8452 41.9626C45.7512 43.0564 45.2042 44.389 45.2042 45.9602C45.2042 47.2131 45.5017 48.2274 46.0967 49.0031C46.7108 49.7787 47.4593 50.3655 48.3422 50.7632C49.2442 51.161 50.367 51.5289 51.7104 51.867V58.7882C50.5589 58.7087 49.4553 58.4601 48.3998 58.0424C47.3442 57.6049 46.4709 57.0579 45.78 56.4016L44.7148 58.7286C45.4633 59.4446 46.4613 60.0412 47.7088 60.5185C48.9755 60.976 50.3094 61.2445 51.7104 61.324V64.6951H53.5529V61.324C55.7216 61.145 57.3721 60.5086 58.5045 59.4147ZM48.9755 47.8396C48.3422 47.3623 48.0255 46.696 48.0255 45.8408C48.0255 45.0055 48.3326 44.2995 48.9467 43.7227C49.5609 43.126 50.4821 42.7482 51.7104 42.5891V49.0329C50.5205 48.7147 49.6089 48.3169 48.9755 47.8396ZM56.4317 57.7441C55.7984 58.301 54.8388 58.6391 53.5529 58.7584V52.3444C54.8004 52.7024 55.7504 53.12 56.4029 53.5973C57.0747 54.0548 57.4105 54.721 57.4105 55.5961C57.4105 56.4513 57.0843 57.1673 56.4317 57.7441Z" fill="#141414"/>
</svg>
