<svg width="108" height="71" viewBox="0 0 108 71" fill="none" xmlns="http://www.w3.org/2000/svg">
<path d="M107.995 61.7426C94.0216 63.7935 80.0512 65.8418 66.0781 67.8927C60.7606 68.6723 55.443 69.4573 50.1228 70.229C49.6735 70.2951 49.2137 70.3189 48.7591 70.3189C32.899 70.3242 17.0389 70.3215 1.18138 70.3215C0.803446 70.3215 0.428152 70.3215 0 70.3215C0.00264291 50.1667 0.00264291 30.1334 0.00264291 9.95738C1.5276 9.95738 3.05256 9.95738 4.73346 9.95738C4.73346 8.42713 4.70703 7.03432 4.74403 5.6415C4.76517 4.87506 4.78367 4.08218 4.98982 3.35274C5.58448 1.26484 7.57723 -0.0989072 9.68892 0.0253097C11.9724 0.160098 13.8383 1.71677 14.1237 3.95004C14.314 5.44064 14.2321 6.9656 14.2664 8.4747C14.277 8.92136 14.2691 9.36801 14.2691 9.85959C22.256 9.85959 30.116 9.85959 38.1267 9.85959C38.1267 8.05184 38.0712 6.30223 38.1399 4.55526C38.2694 1.25955 41.5915 -0.894424 44.6229 0.363603C46.6104 1.18819 47.5777 2.78187 47.6253 4.9147C47.6596 6.52688 47.6332 8.13905 47.6332 9.59794C64.6113 12.4338 81.4916 15.2538 98.4009 18.079C98.5146 17.68 98.5912 17.3443 98.7022 17.0192C99.2942 15.2723 101.025 14.1305 102.775 14.3208C104.72 14.5323 106.153 15.9541 106.353 17.8782C106.372 18.0526 106.42 18.235 106.393 18.4015C106.253 19.271 106.665 19.6172 107.49 19.6199C107.659 19.6199 107.831 19.7044 108 19.7494C107.995 33.7489 107.995 47.7458 107.995 61.7426ZM104.823 59.0046C104.823 56.0022 104.823 53.1214 104.823 50.2407C104.823 41.3076 104.823 32.3746 104.823 23.4415C104.823 22.8865 104.939 22.3896 104.073 22.2522C99.4925 21.5333 94.9255 20.7352 90.3533 19.9661C79.2002 18.0923 68.0444 16.2211 56.8913 14.3499C54.8986 14.0169 52.9032 13.6918 50.7624 13.3403C50.7624 25.5268 50.7624 37.5652 50.7624 49.6064C49.6656 49.6064 48.6957 49.6064 47.6094 49.6064C47.6094 37.4278 47.6094 25.3153 47.6094 13.2002C43.8512 13.2002 40.2146 13.2002 36.5541 13.2002C36.5541 14.2521 36.5541 15.2141 36.5541 16.3136C39.197 16.3136 41.7792 16.3136 44.3798 16.3136C44.3798 32.2503 44.3798 48.0523 44.3798 63.9864C41.7184 63.9864 39.1336 63.9864 36.5541 63.9864C36.5541 65.0859 36.5541 66.0532 36.5541 67.0681C40.2595 67.0681 43.9014 67.0681 47.6596 67.0681C47.6596 64.4225 47.6596 61.8404 47.6596 59.2847C48.7776 59.2847 49.7713 59.2847 50.8391 59.2847C50.8391 61.8589 50.8391 64.3459 50.8391 66.9333C68.8558 64.2877 86.7827 61.6554 104.823 59.0046ZM30.1609 49.72C30.1609 53.4359 30.1609 57.0435 30.1609 60.6802C31.2472 60.6802 32.2409 60.6802 33.3298 60.6802C33.3298 59.6336 33.3298 58.6636 33.3298 57.6567C34.4239 57.6567 35.4203 57.6567 36.5118 57.6567C36.5118 58.7059 36.5118 59.6785 36.5118 60.6775C38.1346 60.6775 39.6569 60.6775 41.2162 60.6775C41.2162 46.9344 41.2162 33.2732 41.2162 19.5538C39.6331 19.5538 38.1108 19.5538 36.4458 19.5538C36.4458 20.611 36.4458 21.6073 36.4458 22.5931C35.3357 22.5931 34.3684 22.5931 33.2743 22.5931C33.2743 21.5281 33.2743 20.5317 33.2743 19.5485C32.1722 19.5485 31.2022 19.5485 30.1186 19.5485C30.1186 23.7745 30.1186 27.9371 30.1186 32.105C29.0033 32.105 28.0096 32.105 27.0423 32.105C27.0423 26.8033 27.0423 21.5809 27.0423 16.2687C29.1487 16.2687 31.1784 16.2687 33.2346 16.2687C33.2346 15.1798 33.2346 14.1808 33.2346 13.2082C27.9435 13.2082 22.7264 13.2082 17.5146 13.2082C17.5146 14.2653 17.5146 15.2326 17.5146 16.3374C19.6316 16.3374 21.6798 16.3374 23.7096 16.3374C23.7096 21.6946 23.7096 26.9117 23.7096 32.1261C22.6577 32.1261 21.6877 32.1261 20.5989 32.1261C20.5989 27.9028 20.5989 23.7402 20.5989 19.5723C19.4862 19.5723 18.4925 19.5723 17.4009 19.5723C17.4009 20.6295 17.4009 21.5968 17.4009 22.6064C16.3332 22.6064 15.3659 22.6064 14.2585 22.6064C14.2585 21.5571 14.2585 20.5634 14.2585 19.5723C12.5935 19.5723 11.0685 19.5723 9.54092 19.5723C9.54092 33.3234 9.54092 46.9872 9.54092 60.6749C11.1293 60.6749 12.6516 60.6749 14.2823 60.6749C14.2823 59.6283 14.2823 58.6583 14.2823 57.6593C15.387 57.6593 16.3808 57.6593 17.4723 57.6593C17.4723 58.7138 17.4723 59.6838 17.4723 60.6696C18.5638 60.6696 19.5549 60.6696 20.6438 60.6696C20.6438 56.9774 20.6438 53.3725 20.6438 49.7517C21.738 49.7517 22.7317 49.7517 23.736 49.7517C23.736 54.4957 23.736 59.1579 23.736 63.9521C21.6296 63.9521 19.5734 63.9521 17.4934 63.9521C17.4934 65.0595 17.4934 66.0347 17.4934 67.0707C22.7634 67.0707 27.9858 67.0707 33.232 67.0707C33.232 66.0188 33.232 65.0251 33.232 63.9336C31.1309 63.9336 29.1038 63.9336 27.0238 63.9336C27.0238 59.1446 27.0238 54.4535 27.0238 49.7174C28.0545 49.72 29.0271 49.72 30.1609 49.72ZM6.36149 63.9442C6.36149 48.0127 6.36149 32.2133 6.36149 16.2845C9.00176 16.2845 11.5865 16.2845 14.2083 16.2845C14.2083 15.1877 14.2083 14.223 14.2083 13.187C10.5135 13.187 6.8795 13.187 3.20057 13.187C3.20057 31.1694 3.20057 49.1042 3.20057 67.0602C6.91122 67.0602 10.5505 67.0602 14.2109 67.0602C14.2109 66.0136 14.2109 65.0463 14.2109 63.9468C11.5707 63.9442 8.98855 63.9442 6.36149 63.9442ZM44.4221 9.85695C44.4221 8.08091 44.4749 6.36566 44.4009 4.65834C44.3613 3.7941 43.7851 3.23909 42.8707 3.22852C42.0778 3.21795 41.4039 3.63553 41.3616 4.41255C41.2638 6.2203 41.3299 8.03598 41.3299 9.85695C42.4002 9.85695 43.3676 9.85695 44.4221 9.85695ZM7.93667 9.8543C9.04141 9.8543 10.0061 9.8543 11.0579 9.8543C11.0579 8.07827 11.1161 6.36566 11.0342 4.65834C10.9892 3.70953 10.2651 3.16245 9.40348 3.23116C8.50225 3.30516 7.96574 3.82053 7.94724 4.72177C7.91024 6.40002 7.93667 8.07827 7.93667 9.8543ZM101.702 18.642C102.204 18.7213 102.638 18.7926 103.14 18.8719C103.243 18.2138 103.256 17.6218 102.516 17.5293C101.863 17.45 101.604 17.9046 101.702 18.642Z" fill="black"/>
<path d="M60.2607 60.7042C59.2326 60.7042 58.2627 60.7042 57.2188 60.7042C57.2188 47.0007 57.2188 33.3183 57.2188 19.5566C58.2204 19.5566 59.2141 19.5566 60.2607 19.5566C60.2607 33.2813 60.2607 46.9637 60.2607 60.7042Z" fill="black"/>
<path d="M68.2267 59.1343C67.2066 59.1343 66.2393 59.1343 65.1953 59.1343C65.1953 46.4774 65.1953 33.8363 65.1953 21.1187C66.1785 21.1187 67.1722 21.1187 68.2267 21.1187C68.2267 33.7967 68.2267 46.4351 68.2267 59.1343Z" fill="black"/>
<path d="M76.1452 22.7412C76.1452 34.3304 76.1452 45.8746 76.1452 57.4982C75.1276 57.4982 74.1339 57.4982 73.082 57.4982C73.082 45.9063 73.082 34.3647 73.082 22.7412C74.1048 22.7412 75.0959 22.7412 76.1452 22.7412Z" fill="black"/>
<path d="M84.0966 55.9651C83.079 55.9651 82.1091 55.9651 81.0625 55.9651C81.0625 45.4252 81.0625 34.8958 81.0625 24.2925C82.0457 24.2925 83.042 24.2925 84.0966 24.2925C84.0966 34.8536 84.0966 45.3803 84.0966 55.9651Z" fill="black"/>
<path d="M89.0117 25.8916C90.0636 25.8916 91.0309 25.8916 92.0643 25.8916C92.0643 35.3717 92.0643 44.8016 92.0643 54.3135C91.0573 54.3135 90.0662 54.3135 89.0117 54.3135C89.0117 44.8598 89.0117 35.4299 89.0117 25.8916Z" fill="black"/>
<path d="M96.9414 27.4453C97.951 27.4453 98.9157 27.4453 99.9543 27.4453C99.9543 35.8973 99.9543 44.3045 99.9543 52.7803C98.9685 52.7803 98.0012 52.7803 96.9414 52.7803C96.9414 44.3864 96.9414 35.9819 96.9414 27.4453Z" fill="black"/>
<path d="M47.6797 55.9625C47.6797 54.9317 47.6797 53.9671 47.6797 52.9258C48.6893 52.9258 49.6804 52.9258 50.7375 52.9258C50.7375 53.9222 50.7375 54.9132 50.7375 55.9625C49.7332 55.9625 48.7712 55.9625 47.6797 55.9625Z" fill="black"/>
<path d="M38.0565 35.4193C38.0565 38.6014 38.0565 41.6804 38.0565 44.8096C37.5358 44.8572 37.0627 44.8995 36.5051 44.9497C36.5051 45.9646 36.5051 46.9345 36.5051 47.9785C35.4215 47.9785 34.4278 47.9785 33.3442 47.9785C33.3442 46.9847 33.3442 46.0121 33.3442 44.9603C28.0451 44.9603 22.8306 44.9603 17.4814 44.9603C17.4814 45.9302 17.4814 46.9239 17.4814 47.9837C16.3846 47.9837 15.4146 47.9837 14.3125 47.9837C14.3125 47.0164 14.3125 46.0201 14.3125 44.9629C13.7152 44.9074 13.2422 44.8651 12.7109 44.8149C12.7109 41.6778 12.7109 38.5723 12.7109 35.4141C13.2052 35.3797 13.6518 35.3506 14.2227 35.311C14.2227 34.312 14.2227 33.3156 14.2227 32.2531C15.3433 32.2531 16.337 32.2531 17.4206 32.2531C17.4206 33.268 17.4206 34.2406 17.4206 35.2846C22.7223 35.2846 27.9394 35.2846 33.2781 35.2846C33.2781 34.304 33.2781 33.3077 33.2781 32.2505C34.3696 32.2505 35.3396 32.2505 36.4364 32.2505C36.4364 33.2204 36.4364 34.2142 36.4364 35.2819C37.0284 35.3321 37.5041 35.3718 38.0565 35.4193ZM34.8744 38.5935C28.4838 38.5935 22.2043 38.5935 15.9009 38.5935C15.9009 39.6533 15.9009 40.6497 15.9009 41.6381C22.2624 41.6381 28.542 41.6381 34.8744 41.6381C34.8744 40.6074 34.8744 39.6374 34.8744 38.5935Z" fill="black"/>
<path d="M17.3474 28.9707C16.3087 28.9707 15.3678 28.9707 14.3477 28.9707C14.3477 27.9399 14.3477 26.9489 14.3477 25.897C15.3467 25.897 16.3166 25.897 17.3474 25.897C17.3474 26.9277 17.3474 27.9452 17.3474 28.9707Z" fill="black"/>
<path d="M33.3984 25.8809C34.416 25.8809 35.3806 25.8809 36.414 25.8809C36.414 26.909 36.414 27.8974 36.414 28.9493C35.415 28.9493 34.453 28.9493 33.3984 28.9493C33.3984 27.974 33.3984 26.9856 33.3984 25.8809Z" fill="black"/>
<path d="M14.3242 54.3214C14.3242 53.3171 14.3242 52.3472 14.3242 51.3032C15.3365 51.3032 16.3302 51.3032 17.3847 51.3032C17.3847 52.3128 17.3847 53.2801 17.3847 54.3214C16.3645 54.3214 15.3735 54.3214 14.3242 54.3214Z" fill="black"/>
<path d="M33.3711 51.2847C34.4335 51.2847 35.4009 51.2847 36.4289 51.2847C36.4289 52.3101 36.4289 53.2774 36.4289 54.324C35.4194 54.324 34.4256 54.324 33.3711 54.324C33.3711 53.3224 33.3711 52.3524 33.3711 51.2847Z" fill="black"/>
</svg>
