<svg width="77" height="56" viewBox="0 0 77 56" fill="none" xmlns="http://www.w3.org/2000/svg">
<path d="M76.3841 55.2707C75.9944 55.7388 75.5934 56.1864 74.8867 55.9122C74.1985 55.6455 74.1407 55.0656 74.1426 54.4409C74.15 51.6622 74.1482 48.8836 74.1444 46.105C74.1426 44.4397 73.5496 43.6434 71.9626 43.179C70.5341 42.7613 69.1075 42.3361 67.6678 41.9576C67.4422 41.8979 67.0841 41.993 66.9126 42.1515C66.1629 42.8396 65.4337 43.5557 64.7549 44.311C64.5535 44.5348 64.4491 44.9208 64.4472 45.2322C64.4249 48.2346 64.4342 51.237 64.4342 54.2376C64.4342 54.4353 64.4454 54.6367 64.4249 54.8325C64.354 55.5411 63.9102 55.9999 63.3022 55.9999C62.6682 55.9999 62.2057 55.5113 62.202 54.7541C62.1889 51.6026 62.187 48.4528 62.2038 45.3012C62.2057 44.8201 62.0901 44.4583 61.7246 44.132C61.1875 43.6527 60.697 43.1231 60.1879 42.614C59.3003 41.7282 59.3003 41.7282 58.0247 42.2578C59.8131 44.0593 59.6975 46.3344 59.6732 48.5946C59.6527 50.4799 59.6695 52.3653 59.6695 54.2506C59.6695 54.4241 59.677 54.5994 59.6658 54.7709C59.6173 55.5206 59.166 56.0092 58.5319 55.9999C57.8979 55.9905 57.441 55.5001 57.4373 54.743C57.4242 52.0632 57.4336 49.3834 57.4298 46.7036C57.428 44.6131 56.6056 43.4476 54.6251 42.7222C52.3668 41.896 50.1047 41.0736 47.7569 40.2177C47.0911 41.2154 46.4216 42.2205 45.7503 43.2257C45.4202 43.7198 45.1032 44.2252 44.7526 44.7064C43.8239 45.9782 42.2779 46.1311 41.1367 45.0476C40.5828 44.5217 40.0793 43.9455 39.5515 43.3916C39.4807 43.4159 39.4079 43.4401 39.3371 43.4662C39.3371 43.7198 39.3371 43.9753 39.3371 44.229C39.3371 47.5782 39.3389 50.9275 39.3371 54.2767C39.3371 55.4255 38.9828 55.9738 38.2387 55.9961C37.4741 56.0185 37.1011 55.4535 37.1011 54.26C37.0993 50.9349 37.1011 47.6099 37.1011 44.2868C37.1011 44.0201 37.1011 43.7553 37.1011 43.276C36.4745 43.8896 35.9915 44.3614 35.5104 44.835C34.0875 46.2337 32.5863 46.0789 31.4637 44.4136C30.5369 43.0373 29.6175 41.6536 28.6627 40.2251C26.6654 40.9468 24.6868 41.6573 22.712 42.3772C19.4634 43.5613 18.9823 44.2569 18.9823 47.733C18.9823 49.9167 18.9823 52.1005 18.9823 54.2823C18.9823 54.5061 18.986 54.7299 18.9655 54.9518C18.904 55.5952 18.5142 55.9607 17.8988 55.9812C17.3132 56.0017 16.9048 55.6623 16.806 55.0693C16.7407 54.6814 16.7482 54.2805 16.7482 53.8851C16.7426 51.7014 16.7631 49.5177 16.7407 47.3358C16.7258 45.9055 16.8414 44.5143 17.6079 43.2667C16.5542 42.4536 16.5542 42.4536 15.6498 43.3152C13.6451 45.2173 11.5248 45.6276 9.51072 44.408C8.84124 44.0014 8.30603 43.3804 7.67012 42.9086C7.48736 42.7725 7.12185 42.7091 6.92418 42.7986C5.86308 43.2816 4.83182 43.828 3.7875 44.3464C2.71708 44.8761 2.22849 45.7357 2.23409 46.9218C2.24714 49.5027 2.24528 52.0818 2.23409 54.6628C2.23036 55.5691 1.62988 56.177 0.923099 55.9514C0.578102 55.8414 0.305835 55.5057 0 55.2726C0 52.1452 0 49.0197 0 45.8924C0.602346 42.8993 3.25043 42.1385 5.60759 40.9431C4.0001 40.186 2.65741 39.3132 1.65598 37.9892C1.30912 37.5304 1.18231 37.081 1.30726 36.4749C1.66531 34.7369 1.99912 32.9877 2.21544 31.2272C2.44668 29.3363 2.34971 27.3913 2.72268 25.5339C3.56932 21.3156 7.03234 18.3523 11.2376 17.9887C15.4913 17.6213 19.6126 20.4596 20.8415 24.7879C21.2686 26.2929 21.3059 27.9115 21.47 29.4855C21.6509 31.2105 21.7478 32.9429 21.9343 34.666C21.9921 35.1994 22.173 35.7308 22.3726 36.2325C22.643 36.9076 22.5404 37.4633 22.0947 38.0283C21.0858 39.3076 19.7842 40.1897 18.2755 40.8946C18.8144 41.3627 19.234 41.4242 19.9259 41.124C21.9492 40.2494 24.0416 39.5295 26.1134 38.7668C26.8202 38.5057 27.4543 38.3062 27.8422 37.4819C28.1741 36.777 28.948 36.2903 29.4627 35.6563C29.6902 35.3765 29.763 34.9719 29.9047 34.6231C29.914 34.6026 29.9028 34.5728 29.9065 34.5485C30.1583 32.6184 29.6511 31.0986 28.2133 29.5936C25.996 27.2738 25.1325 24.2415 25.1456 21.0414C25.1512 19.4321 24.7801 17.9402 24.422 16.3924C23.6202 12.92 23.4057 9.38056 25.0412 6.05554C26.8818 2.31652 30.0017 0.209245 34.1565 0.0898944C39.8201 -0.0742121 45.4929 0.0358138 51.1621 0.0395435C52.0292 0.0395435 52.488 0.460999 52.488 1.3095C52.4842 5.57627 52.5178 9.84677 52.3873 14.1098C52.3481 15.391 51.8148 16.6535 51.5276 17.929C51.4213 18.4046 51.3094 18.895 51.3113 19.3799C51.3187 21.6177 51.2796 23.8387 50.4609 25.9777C49.6926 27.988 48.5177 29.6999 46.955 31.175C46.7219 31.3951 46.6547 31.7923 46.5223 32.113C46.4962 32.1764 46.5279 32.2622 46.5167 32.335C46.2221 34.3061 46.6864 35.9863 48.3835 37.1966C48.4618 37.2526 48.5606 37.3327 48.5793 37.4167C48.803 38.4293 49.6944 38.5449 50.459 38.8246C51.811 39.3207 53.1742 39.7813 54.5132 40.309C55.123 40.5496 55.6899 40.6317 56.3053 40.3818C56.6018 40.2606 56.9207 40.1916 57.2321 40.1039C58.711 39.6787 58.821 39.5258 58.5935 38.0227C58.5655 37.8325 58.4145 37.6218 58.2597 37.4931C56.061 35.6544 54.9757 33.301 55.0279 30.4496C55.0465 29.4612 54.8545 28.5773 54.4274 27.671C52.4842 23.5422 55.5314 18.2983 60.0984 18.0726C63.8934 17.8861 67.7014 17.9645 71.5038 17.9514C72.2815 17.9495 72.7719 18.3486 72.7719 19.0349C72.7719 21.3641 72.7383 23.6951 72.6507 26.0225C72.6302 26.5726 72.4418 27.1637 72.1714 27.6467C71.6642 28.5568 71.571 29.5004 71.5971 30.5074C71.6717 33.3625 70.6628 35.742 68.3802 37.5286C67.7051 38.0563 68.065 38.7724 68.08 39.3915C68.0856 39.5911 68.5872 39.8503 68.9061 39.9566C69.846 40.2699 70.7952 40.5888 71.7649 40.7846C74.1071 41.2583 75.7389 42.4853 76.386 44.8537C76.3841 48.3223 76.3841 51.7965 76.3841 55.2707ZM50.2595 2.29228C44.7638 2.29228 39.3912 2.18785 34.0279 2.32771C30.287 2.42468 27.1522 5.19212 26.41 8.864C25.8953 11.4114 25.8747 14.0315 26.7755 16.5024C27.2603 17.8358 27.3666 19.1374 27.3554 20.5006C27.3387 22.4084 27.6482 24.2471 28.4743 25.9889C30.2758 29.7857 34.3076 32.7247 39.4564 32.2119C43.6878 31.7904 47.6319 28.5344 48.6296 24.2191C49.025 22.5054 48.9205 20.6797 49.0697 18.9062C49.1126 18.3952 49.1592 17.8582 49.3513 17.3938C49.976 15.8777 50.2595 14.3094 50.2595 12.6795C50.2614 9.4794 50.2595 6.27746 50.2595 3.07738C50.2595 2.83681 50.2595 2.59438 50.2595 2.29228ZM70.4856 20.2023C70.3215 20.1911 70.1761 20.1706 70.0325 20.1706C67.0748 20.1687 64.1172 20.1612 61.1614 20.1762C60.6933 20.178 60.214 20.2302 59.7609 20.3421C56.6932 21.0918 55.1528 24.5548 56.6335 27.1208C57.0904 27.9134 57.2713 28.7451 57.2806 29.6701C57.29 30.6995 57.3571 31.7625 57.6219 32.7508C58.2559 35.1173 60.4061 36.7714 62.974 37.0325C65.1074 37.2488 67.4627 35.9285 68.5909 33.9163C69.2735 32.7005 69.4152 31.3839 69.3611 30.0337C69.3201 29.0006 69.4282 28.0309 69.9597 27.1003C70.245 26.6006 70.439 25.9833 70.4614 25.4108C70.5266 23.7044 70.4856 21.9962 70.4856 20.2023ZM19.2172 29.381C19.262 27.0257 18.8965 25.3791 17.91 23.6541C16.3603 20.9426 12.9122 19.5738 9.95082 20.4857C5.80713 21.7631 4.25185 25.8043 4.61177 29.6253C5.06865 30.0263 5.49943 30.2631 5.7083 30.6286C5.90224 30.9699 5.86681 31.4436 5.92275 31.8594C6.30691 34.7294 8.56151 36.7584 11.6702 37.0306C14.1598 37.2488 16.7911 35.4269 17.6247 32.9448C17.8634 32.2324 17.8112 31.6356 17.3599 31.0072C15.605 28.5717 13.1005 27.6393 10.2399 27.4174C10.0403 27.4024 9.78672 27.5721 9.62261 27.7251C9.13215 28.1801 8.72562 28.747 8.18295 29.1181C7.87898 29.3251 7.29528 29.381 6.9708 29.2281C6.68361 29.092 6.44305 28.5773 6.4244 28.2192C6.3871 27.4826 8.84683 25.1236 9.58158 25.1348C11.8269 25.1665 13.9975 25.6029 15.9071 26.802C17.0988 27.5516 18.145 28.5344 19.2172 29.381ZM32.1425 33.0063C32.1425 33.6385 32.0996 34.1345 32.1611 34.6175C32.1929 34.8712 32.3514 35.1844 32.5528 35.3262C34.2983 36.5532 36.0624 37.7542 37.8415 38.9347C38.0112 39.0465 38.3748 39.0671 38.5352 38.9608C40.3553 37.7542 42.1567 36.5197 43.9507 35.2758C44.1074 35.1677 44.2491 34.9308 44.264 34.7443C44.3069 34.2147 44.2789 33.6776 44.2789 33.0399C40.2098 34.9644 36.2358 34.9998 32.1425 33.0063ZM42.8337 43.5464C43.7754 42.1403 44.6817 40.7902 45.5862 39.4382C46.3731 38.2633 46.3731 38.2614 45.3456 37.2544C45.3139 37.2246 45.258 37.219 45.1498 37.1761C43.4509 38.336 41.7204 39.5146 39.9786 40.7025C40.9353 41.6573 41.8453 42.5636 42.8337 43.5464ZM33.5132 43.4513C34.4773 42.4984 35.3985 41.5865 36.3515 40.6447C34.6619 39.4922 32.9332 38.3155 31.197 37.1313C30.8651 37.4689 30.5686 37.7337 30.3243 38.0395C30.231 38.157 30.1714 38.4255 30.2422 38.5318C31.3332 40.2046 32.4483 41.8606 33.5132 43.4513ZM9.4585 39.1323C9.31118 40.3613 8.97178 41.7431 10.6334 42.5189C11.5751 42.959 12.4031 42.8919 13.3206 42.4126C14.915 41.5771 14.3798 40.2438 14.2903 39.1323C12.6548 39.1323 11.0641 39.1323 9.4585 39.1323ZM63.3078 42.5991C64.0071 41.8848 64.6095 41.1967 65.2939 40.5981C65.844 40.117 65.8944 39.6023 65.747 39.1193C64.0873 39.1193 62.5059 39.1193 60.8127 39.1193C60.85 39.4009 60.7623 39.9323 60.988 40.2046C61.6761 41.0363 62.4836 41.7674 63.3078 42.5991ZM7.09947 39.0838C7.26917 38.3286 7.25798 37.6945 6.51018 37.2712C6.27894 37.1407 6.08313 36.9262 5.91716 36.7118C5.33533 35.9584 4.77401 35.1863 4.21828 34.4385C4.05045 35.1099 3.85464 35.7998 3.71477 36.5029C3.67561 36.7006 3.73715 37.0008 3.86956 37.1388C4.76468 38.0656 5.85748 38.6736 7.09947 39.0838ZM16.6605 39.0894C17.9473 38.6587 19.0923 38.0265 20.0098 37.0232C20.0937 36.9318 20.1403 36.7453 20.1124 36.626C19.9352 35.8894 19.7319 35.1602 19.5697 34.5579C18.835 35.4362 18.1524 36.4451 17.2741 37.2376C16.6699 37.7822 16.4517 38.2782 16.6605 39.0894Z" fill="black"/>
<path d="M71.6069 51.3845C71.6069 52.4735 71.6181 53.5626 71.6031 54.6517C71.592 55.4927 71.1164 56.0261 70.4413 55.9962C69.7868 55.9683 69.3746 55.4666 69.3728 54.6442C69.3653 52.4176 69.3653 50.1891 69.3728 47.9625C69.3765 47.1345 69.7849 46.6496 70.4488 46.631C71.1463 46.6105 71.5938 47.1121 71.6031 47.9699C71.6181 49.1075 71.6069 50.2451 71.6069 51.3845Z" fill="black"/>
<path d="M7.01709 52.1095C7.01709 52.9767 7.02828 53.8438 7.01336 54.711C7.00031 55.5054 6.5341 56.0164 5.8758 55.9977C5.24922 55.9791 4.79419 55.4849 4.78673 54.7296C4.76809 52.9468 4.76995 51.1622 4.78673 49.3794C4.79419 48.5756 5.25667 48.0945 5.93361 48.1113C6.58258 48.1262 7.00031 48.5905 7.01336 49.3626C7.03014 50.2764 7.01709 51.1939 7.01709 52.1095Z" fill="black"/>
<path d="M50.2596 52.4733C50.2596 51.7293 50.2446 50.9833 50.2633 50.2392C50.2801 49.5101 50.6847 49.0513 51.3001 49.0178C51.9491 48.9805 52.4638 49.4336 52.4806 50.1833C52.516 51.7218 52.5142 53.2603 52.4825 54.7988C52.4675 55.5335 51.9416 56.024 51.3207 55.996C50.709 55.968 50.2838 55.5 50.2651 54.782C50.2446 54.0118 50.2596 53.2416 50.2596 52.4733Z" fill="black"/>
<path d="M26.1508 52.4735C26.1508 53.2176 26.1658 53.9617 26.1471 54.7057C26.1285 55.4834 25.7163 55.9664 25.0916 55.9944C24.4799 56.0223 23.9484 55.5319 23.9317 54.7971C23.8981 53.2605 23.8962 51.7201 23.9354 50.1835C23.954 49.4338 24.4725 48.9807 25.1121 49.0161C25.7256 49.0515 26.1229 49.501 26.1452 50.2413C26.1657 50.9835 26.149 51.7276 26.1508 52.4735Z" fill="black"/>
<path d="M30.9456 12.8494C30.9456 13.6979 30.9586 14.4625 30.9419 15.2289C30.9213 16.1259 30.5129 16.5903 29.8024 16.5735C29.1274 16.5586 28.7357 16.1073 28.7152 15.2457C28.6966 14.4289 28.6835 13.6084 28.7395 12.7934C28.8215 11.6018 29.6271 10.7757 30.802 10.6097C34.237 10.1286 37.674 9.97939 41.109 10.5929C43.3114 10.9864 45.3758 11.7156 47.0765 13.2447C47.746 13.8471 47.8672 14.4532 47.429 14.9884C47.0001 15.5124 46.2989 15.5292 45.6574 14.9585C44.434 13.8676 42.9832 13.2727 41.4111 12.9352C37.9649 12.2004 34.5112 12.3515 30.9456 12.8494Z" fill="black"/>
<path d="M61.0838 23.9375C63.1407 24.1072 65.1827 24.3124 67.111 25.1161C67.6928 25.3585 68.077 25.7446 67.9688 26.4159C67.855 27.1283 67.18 27.5218 66.4322 27.2271C64.4368 26.4383 62.3463 26.276 60.239 26.1735C60.0413 26.1642 59.8418 26.1492 59.6478 26.1194C58.9728 26.015 58.583 25.5935 58.624 24.9837C58.6688 24.3403 59.0548 23.9953 59.6739 23.9431C60.1402 23.9077 60.612 23.9375 61.0838 23.9375Z" fill="black"/>
</svg>
