<svg width="72" height="73" viewBox="0 0 72 73" fill="none" xmlns="http://www.w3.org/2000/svg">
<path d="M72 65.8859C71.4594 67.3698 70.7723 68.7618 69.5958 69.8659C66.0645 73.1781 60.7649 72.9909 57.4456 69.3978C51.7945 63.2785 46.1629 57.1434 40.5224 51.0154C40.3174 50.7928 40.1108 50.5737 40.0171 50.473C39.2646 50.8334 38.6181 51.2167 37.9203 51.434C37.6871 51.5065 37.2561 51.215 37.03 50.98C36.3675 50.2911 36.5671 49.6922 37.9185 48.1925C37.3161 47.5353 36.7067 46.8711 36.0637 46.168C35.91 46.3058 35.7722 46.4171 35.6468 46.5408C33.1577 49.028 30.6758 51.5241 28.1726 53.9972C27.8264 54.3382 27.7504 54.6473 27.8511 55.1119C29.8526 64.259 22.5356 72.786 13.1872 72.1712C12.0531 72.097 10.9208 71.8161 9.81847 71.5211C8.53597 71.1784 8.2339 69.9825 9.16662 69.0374C10.8978 67.285 12.6502 65.5538 14.4167 63.835C14.7948 63.4658 14.9113 63.0807 14.982 62.5613C15.1922 61.0386 14.7047 59.8762 13.4681 58.9983C13.4116 58.9576 13.3586 58.9064 13.3197 58.8499C12.3782 57.4632 11.0568 56.9933 9.4475 57.2883C9.11009 57.3501 8.72499 57.4826 8.49004 57.714C6.75002 59.424 5.04533 61.1711 3.32297 62.8987C2.20123 64.0222 1.06006 63.7184 0.60606 62.1886C-1.78934 54.1068 3.24701 45.8041 11.5179 44.2372C13.4257 43.8768 15.3441 43.9351 17.2485 44.3573C17.4781 44.4086 17.8349 44.3679 17.9851 44.2213C21.3503 40.8861 24.6961 37.5315 28.0755 34.1486C27.9076 33.9667 27.7575 33.7971 27.5967 33.6363C22.1629 28.1866 16.7256 22.7422 11.3006 17.2836C10.9455 16.925 10.5993 16.7343 10.0781 16.7607C9.21255 16.8049 8.34342 16.766 7.47429 16.7731C6.87898 16.7784 6.43558 16.524 6.1335 16.0223C4.17973 12.7666 2.22596 9.51095 0.275721 6.25172C-0.0987819 5.6246 -0.123513 4.97099 0.399377 4.4322C1.7225 3.07021 3.07742 1.73826 4.42881 0.401C4.58956 0.242013 4.80155 0.132489 4.9888 0C5.26967 0 5.55232 0 5.8332 0C5.85793 0.0370969 5.87206 0.088326 5.90739 0.109524C9.22668 2.09156 12.5442 4.07713 15.8706 6.0468C16.5012 6.41954 16.8015 6.93536 16.7892 7.6614C16.7768 8.4581 16.8157 9.25834 16.7768 10.0533C16.7521 10.585 16.9163 10.9648 17.2997 11.3464C22.7282 16.7643 28.1426 22.1981 33.5552 27.6319C33.7177 27.7944 33.8255 28.0117 33.9421 28.1813C34.1417 28.0506 34.2088 28.0223 34.2565 27.9746C37.5581 24.6748 40.8633 21.3802 44.1437 18.0591C44.3239 17.8772 44.3999 17.4638 44.3434 17.1953C44.0077 15.5984 43.8717 13.9997 44.1137 12.378C44.8768 7.2657 47.5655 3.51891 52.2344 1.33196C53.69 0.65008 55.3629 0.432798 56.9351 0.00176652C57.7795 0.00176652 58.6239 0.00176652 59.4683 0.00176652C60.3763 0.204916 61.2949 0.367436 62.1887 0.618282C63.7221 1.04931 64.0065 2.19225 62.8865 3.33519C61.1977 5.06108 59.4877 6.76754 57.8166 8.50933C57.587 8.74781 57.458 9.13291 57.3944 9.47208C57.0923 11.0849 57.5905 12.3974 58.9437 13.3602C58.9807 13.3867 59.0161 13.422 59.0408 13.4609C59.8852 14.761 61.0864 15.1532 62.5862 14.966C63.0773 14.9041 63.4518 14.8176 63.8086 14.4484C65.5222 12.6819 67.2551 10.933 69.004 9.20004C69.972 8.24082 71.1432 8.55703 71.5478 9.86072C71.7068 10.373 71.8463 10.8906 71.9965 11.4064C71.9965 13.2365 71.9965 15.0667 71.9965 16.8968C71.8975 17.2041 71.788 17.508 71.7015 17.8189C71.1309 19.8575 70.1964 21.7123 68.7779 23.2863C65.0593 27.4111 60.4487 28.9144 55.0078 27.8421C54.5786 27.7573 54.3277 27.8474 54.0327 28.1442C51.5561 30.6421 49.0635 33.124 46.5762 35.6113C46.4296 35.7597 46.2901 35.9151 46.1152 36.1042C46.8023 36.7348 47.4666 37.3443 48.1237 37.9484C49.7984 36.6235 50.3672 36.4716 51.0243 37.1429C51.6709 37.8018 51.5349 38.3406 50.3001 39.9375C50.482 40.1089 50.6657 40.2837 50.853 40.4569C56.6754 45.8006 62.4767 51.1655 68.3345 56.4704C69.965 57.9472 71.3605 59.5229 72 61.6675C72 63.0701 72 64.478 72 65.8859ZM12.9611 69.2847C13.2173 69.3271 13.3709 69.3695 13.5282 69.3748C15.6604 69.4649 17.6883 69.048 19.5449 67.9881C24.2456 65.303 26.3513 60.1854 24.8975 54.9388C24.6484 54.0414 24.7897 53.3878 25.4539 52.7253C34.5568 43.649 43.6456 34.5584 52.7237 25.4573C53.3614 24.8179 54.0027 24.6447 54.8736 24.8991C59.6149 26.277 64.4499 24.6112 67.3099 20.6012C68.9174 18.3489 69.5746 15.8227 69.299 12.9468C69.0552 13.1729 68.8856 13.3196 68.7284 13.4786C67.536 14.6745 66.3383 15.8651 65.1618 17.077C64.7078 17.5433 64.2043 17.7853 63.5437 17.7694C62.4414 17.7412 61.339 17.7429 60.2367 17.7694C59.5778 17.7853 59.0638 17.5575 58.6168 17.084C57.488 15.8916 56.3027 14.7504 55.2234 13.5157C54.8718 13.1129 54.6475 12.4946 54.5998 11.9558C54.5044 10.8853 54.5803 9.80066 54.568 8.72131C54.5609 8.07477 54.7729 7.54834 55.2375 7.08728C56.4511 5.87898 57.6435 4.65125 58.8412 3.42705C58.9737 3.29103 59.0832 3.13381 59.2298 2.95539C58.1805 2.73811 56.5765 2.83703 55.3223 3.17444C49.0988 4.84203 45.5464 11.0178 47.2934 17.2218C47.5743 18.2199 47.3641 18.8947 46.6522 19.6031C37.6147 28.6123 28.5913 37.634 19.5838 46.6732C18.8878 47.371 18.213 47.5759 17.2573 47.3127C11.9931 45.8659 6.91431 47.961 4.21859 52.6883C3.07566 54.6915 2.67642 56.8678 2.90607 59.2756C3.15162 59.0495 3.31944 58.9029 3.47842 58.7439C4.68672 57.5303 5.86323 56.2831 7.11922 55.1225C7.49372 54.7763 8.08374 54.5325 8.59427 54.4919C9.73544 54.3982 10.8907 54.4777 12.0407 54.4565C12.6467 54.4459 13.1236 54.6579 13.5441 55.0837C14.7294 56.2867 15.9218 57.4826 17.1283 58.6662C17.5965 59.1255 17.7943 59.6607 17.7855 60.3055C17.7731 61.3601 17.7713 62.4165 17.7855 63.4729C17.7961 64.1459 17.5735 64.69 17.0842 65.1634C15.8706 66.3382 14.6817 67.5376 13.4858 68.73C13.3215 68.8837 13.1749 69.0533 12.9611 69.2847ZM41.9409 48.355C41.9585 48.3815 41.9868 48.4451 42.0327 48.4945C47.8905 54.8593 53.7412 61.2311 59.6167 67.58C60.825 68.8872 62.3795 69.5285 64.1672 69.3589C66.5256 69.1346 68.2214 67.8962 69.0146 65.6616C69.859 63.2838 69.2531 61.1782 67.4035 59.4699C63.0614 55.4635 58.7016 51.4782 54.3489 47.4841C52.3298 45.6328 50.3107 43.7832 48.3357 41.9725C46.1982 44.1065 44.0943 46.2051 41.9409 48.355ZM5.56292 3.15854C4.90224 3.84395 4.27336 4.53819 3.59855 5.18297C3.26821 5.49918 3.23111 5.73589 3.47489 6.13336C4.6143 7.98997 5.72014 9.86779 6.84188 11.735C7.27644 12.4575 7.55909 13.4591 8.20033 13.8177C8.86808 14.1905 9.88559 13.982 10.7477 13.952C11.6097 13.922 12.2545 14.2311 12.8586 14.8405C18.3914 20.4174 23.9453 25.9714 29.4869 31.5395C29.6812 31.7338 29.7943 32.0111 29.8632 32.1206C30.6899 31.354 31.3524 30.7375 32.0996 30.045C31.8841 29.8666 31.6721 29.7164 31.4919 29.5362C25.9079 23.9452 20.3293 18.3489 14.7365 12.7666C14.203 12.2332 13.9133 11.6661 13.9557 10.9012C13.9963 10.154 13.9875 9.39966 13.9504 8.65065C13.9398 8.43514 13.8143 8.13306 13.6447 8.02884C10.9914 6.40894 8.31869 4.81377 5.56292 3.15854ZM39.7893 46.0497C41.8844 43.9581 43.9406 41.9036 46.0145 39.8333C45.4368 39.3086 44.7832 38.7151 44.1702 38.1586C42.1281 40.1919 40.1267 42.1845 38.0899 44.2125C38.6799 44.8502 39.2946 45.5144 39.7893 46.0497Z" fill="black"/>
<path d="M46.3348 27.4905C46.1846 27.7255 45.9886 28.1848 45.6617 28.5186C43.8758 30.347 42.058 32.1435 40.2509 33.9507C36.4211 37.7805 32.5913 41.6103 28.7614 45.4401C28.5954 45.6062 28.4364 45.7811 28.2562 45.9295C27.6097 46.463 26.82 46.4524 26.2883 45.9153C25.7601 45.3819 25.7566 44.5852 26.2865 43.9457C26.4049 43.8026 26.5445 43.6736 26.6787 43.5411C32.2998 37.9201 37.9191 32.299 43.5419 26.6815C43.7557 26.4677 43.98 26.2469 44.2362 26.0932C45.1389 25.5527 46.2995 26.2045 46.3348 27.4905Z" fill="black"/>
<path d="M50.3119 23.3181C50.296 24.0724 49.6689 24.6784 48.9075 24.6748C48.1214 24.6713 47.4784 24.0053 47.5173 23.2351C47.5562 22.4826 48.1992 21.889 48.9552 21.9102C49.7113 21.9332 50.3278 22.5709 50.3119 23.3181Z" fill="black"/>
<path d="M23.2664 47.5445C24.0295 47.5357 24.6602 48.131 24.6867 48.8871C24.7132 49.6538 24.056 50.3127 23.2717 50.3056C22.5068 50.2968 21.8885 49.682 21.8867 48.9277C21.8867 48.1734 22.5032 47.5534 23.2664 47.5445Z" fill="black"/>
<path d="M64.137 62.5027C64.1281 63.8259 63.0082 64.483 62.0825 63.9548C61.8228 63.8064 61.5967 63.5891 61.383 63.3754C57.4118 59.4254 53.4442 55.472 49.4784 51.515C49.247 51.2853 49.012 51.0451 48.8407 50.7713C48.4997 50.2289 48.6092 49.5347 49.0579 49.0931C49.5031 48.655 50.1973 48.5649 50.7414 48.897C50.9393 49.0171 51.1212 49.1726 51.2855 49.3351C55.3697 53.4034 59.4557 57.4717 63.524 61.5559C63.8366 61.8703 64.0168 62.3119 64.137 62.5027Z" fill="black"/>
</svg>
