<svg width="64" height="77" viewBox="0 0 64 77" fill="none" xmlns="http://www.w3.org/2000/svg">
<path d="M55.3862 76.7754C37.2401 76.7754 19.0939 76.7754 0.947696 76.7754C0.083973 76.4015 0 75.6757 0 74.85C0.0099968 52.2433 0.00799744 29.6365 0.00799744 7.02975C0.00799744 6.90579 0.00599808 6.77983 0.0099968 6.65587C0.0419865 5.58421 0.49784 5.12236 1.58949 5.11436C3.33893 5.10236 5.08637 5.11036 6.83581 5.11036C7.09972 5.11036 7.36564 5.11036 7.68554 5.11036C7.68554 3.94074 7.71953 2.86908 7.67354 1.80142C7.63955 0.99968 7.86348 0.383877 8.59525 0.00199936C20.7933 0 32.9894 0 45.1875 0C45.4334 0.205934 45.6994 0.393874 45.9253 0.619801C51.7414 6.42994 57.5615 12.2361 63.3477 18.0742C63.6916 18.4221 63.8595 19.0159 63.9475 19.5237C64.0495 20.1056 63.9715 20.7194 63.9715 21.3192C63.9715 36.5603 63.9715 51.8014 63.9715 67.0425C63.9715 68.8079 63.6616 69.1118 61.8642 69.1138C60.2647 69.1138 58.6652 69.1118 57.0657 69.1158C56.8258 69.1158 56.5859 69.1418 56.294 69.1578C56.294 71.1392 56.268 73.0606 56.306 74.978C56.3239 75.7757 56.118 76.3935 55.3862 76.7754ZM61.3763 20.4774C60.9945 20.4774 60.6965 20.4774 60.3966 20.4774C55.4242 20.4774 50.4498 20.4774 45.4774 20.4774C43.8419 20.4774 43.5181 20.1475 43.5181 18.4901C43.5181 13.4937 43.5181 8.49528 43.5181 3.49888C43.5181 3.20697 43.5181 2.91507 43.5181 2.61116C32.3756 2.61116 21.3252 2.61116 10.2947 2.61116C10.2947 23.9443 10.2947 45.2175 10.2947 66.4907C27.3532 66.4907 44.3558 66.4907 61.3743 66.4907C61.3763 51.1496 61.3763 35.8665 61.3763 20.4774ZM2.59717 74.1662C19.6897 74.1662 36.6942 74.1662 53.6788 74.1662C53.6788 72.4528 53.6788 70.7953 53.6788 69.1098C53.2929 69.1098 52.969 69.1098 52.6431 69.1098C38.3457 69.1098 24.0503 69.1098 9.75287 69.1098C8.00543 69.1098 7.68354 68.7919 7.68354 67.0725C7.68354 47.6047 7.68354 28.137 7.68354 8.66722C7.68354 8.35332 7.68354 8.03742 7.68354 7.72552C5.9221 7.72552 4.26663 7.72552 2.59517 7.72552C2.59717 29.9004 2.59717 52.0133 2.59717 74.1662ZM46.1172 4.53455C46.1172 9.00511 46.1172 13.4137 46.1172 17.8283C50.5678 17.8283 54.9804 17.8283 59.4289 17.8283C54.9704 13.3777 50.5718 8.98312 46.1172 4.53455Z" fill="black"/>
<path d="M39.67 55.0283C44.5924 55.0283 49.5148 55.0283 54.4372 55.0283C54.6872 55.0283 54.9411 55.0163 55.185 55.0543C55.8268 55.1523 56.2747 55.6701 56.2826 56.2859C56.2906 56.8997 55.8548 57.4295 55.215 57.5455C54.9711 57.5895 54.7171 57.5795 54.4672 57.5795C44.5964 57.5815 34.7256 57.5815 24.8567 57.5795C24.6068 57.5795 24.3529 57.5875 24.109 57.5435C23.4712 57.4275 23.0273 56.8877 23.0393 56.2799C23.0513 55.6721 23.5131 55.1463 24.1509 55.0523C24.4209 55.0123 24.6988 55.0263 24.9747 55.0263C29.8751 55.0263 34.7715 55.0263 39.67 55.0283Z" fill="black"/>
<path d="M39.7156 39.6714C44.5621 39.6714 49.4105 39.6714 54.257 39.6734C54.5569 39.6734 54.8588 39.6754 55.1547 39.7134C55.8464 39.7994 56.2263 40.2192 56.2803 40.903C56.3283 41.5248 55.9004 42.0367 55.2446 42.1686C54.9787 42.2226 54.7008 42.2346 54.4269 42.2346C44.5821 42.2386 34.7372 42.2366 24.8924 42.2366C24.8424 42.2366 24.7924 42.2366 24.7424 42.2366C23.6628 42.2186 23.055 41.7607 23.047 40.959C23.039 40.1533 23.6408 39.6774 24.7224 39.6754C29.7208 39.6674 34.7192 39.6714 39.7156 39.6714Z" fill="black"/>
<path d="M39.6375 47.355C44.536 47.355 49.4324 47.355 54.3308 47.357C54.6307 47.357 54.9366 47.341 55.2285 47.393C55.8743 47.5089 56.2462 47.9208 56.2762 48.5726C56.3062 49.1924 55.9923 49.6302 55.3945 49.8062C55.1126 49.8882 54.8047 49.9102 54.5088 49.9102C44.6139 49.9162 34.7171 49.9162 24.8223 49.9102C24.5264 49.9102 24.2205 49.8842 23.9366 49.8042C23.3268 49.6322 23.0329 49.1644 23.0649 48.5626C23.0988 47.9268 23.4627 47.4909 24.1205 47.387C24.4144 47.341 24.7183 47.353 25.0182 47.353C29.8907 47.355 34.7631 47.355 39.6375 47.355Z" fill="black"/>
<path d="M39.6643 26.8592C34.7659 26.8592 29.8695 26.8592 24.971 26.8592C24.7211 26.8592 24.4692 26.8692 24.2213 26.8412C23.5255 26.7672 23.1436 26.3474 23.0596 25.6756C22.9837 25.0678 23.4035 24.5279 24.0533 24.372C24.2932 24.314 24.5472 24.306 24.7951 24.306C34.7159 24.302 44.6347 24.302 54.5555 24.308C54.8514 24.308 55.1613 24.33 55.4393 24.424C56.0291 24.6219 56.325 25.0718 56.275 25.6916C56.225 26.3094 55.8571 26.6992 55.2533 26.8212C54.9874 26.8752 54.7055 26.8572 54.4316 26.8572C49.5092 26.8592 44.5867 26.8592 39.6643 26.8592Z" fill="black"/>
<path d="M39.6358 34.541C34.7373 34.541 29.8409 34.541 24.9425 34.541C23.6589 34.541 23.0331 34.1151 23.0431 33.2554C23.0531 32.4017 23.6869 31.9798 24.9685 31.9798C34.7633 31.9798 44.5582 31.9778 54.353 31.9838C54.6989 31.9838 55.0588 31.9958 55.3907 32.0878C55.9905 32.2537 56.3004 32.7016 56.2744 33.3194C56.2484 33.9352 55.9065 34.3531 55.2967 34.481C54.9828 34.547 54.651 34.537 54.3271 34.539C49.4306 34.541 44.5342 34.541 39.6358 34.541Z" fill="black"/>
<path d="M20.4421 11.5307C21.6397 11.5307 22.8373 11.5227 24.035 11.5327C25.1006 11.5427 25.5665 11.9745 25.5745 13.0122C25.5905 15.4334 25.5905 17.8526 25.5745 20.2739C25.5685 21.2755 25.0946 21.7394 24.0969 21.7454C21.6757 21.7574 19.2565 21.7574 16.8353 21.7454C15.8536 21.7394 15.3617 21.2535 15.3557 20.2599C15.3398 17.8386 15.3398 15.4194 15.3557 12.9982C15.3637 12.0125 15.8556 11.5447 16.8493 11.5327C18.0469 11.5187 19.2445 11.5307 20.4421 11.5307ZM17.9409 19.1402C19.6644 19.1402 21.3218 19.1402 22.9853 19.1402C22.9853 17.4468 22.9853 15.8073 22.9853 14.1278C21.2918 14.1278 19.6344 14.1278 17.9409 14.1278C17.9409 15.8093 17.9409 17.4488 17.9409 19.1402Z" fill="black"/>
<path d="M17.884 26.8497C17.4601 26.8497 17.0343 26.8716 16.6104 26.8437C15.9106 26.7977 15.4168 26.3178 15.3668 25.674C15.3188 25.0562 15.7667 24.4164 16.4464 24.3625C17.4121 24.2865 18.3938 24.2845 19.3595 24.3585C20.0613 24.4124 20.4772 25.0022 20.4452 25.656C20.4132 26.3358 19.9133 26.8097 19.1576 26.8497C18.7337 26.8716 18.3079 26.8537 17.884 26.8537C17.884 26.8517 17.884 26.8517 17.884 26.8497Z" fill="black"/>
<path d="M17.9151 47.3707C18.365 47.3707 18.8168 47.3427 19.2627 47.3767C19.9525 47.4307 20.3743 47.8266 20.4343 48.5143C20.4943 49.2041 20.1524 49.7539 19.4726 49.8139C18.437 49.9059 17.3833 49.9019 16.3456 49.8139C15.7018 49.7599 15.284 49.1001 15.3759 48.5103C15.4799 47.8445 15.8658 47.4207 16.5656 47.3747C17.0134 47.3467 17.4653 47.3707 17.9151 47.3707Z" fill="black"/>
<path d="M17.9645 55.0362C18.3884 55.0362 18.8162 55.0082 19.2381 55.0422C19.9679 55.1002 20.4577 55.636 20.4517 56.3158C20.4457 56.9616 19.9779 57.5174 19.2881 57.5554C18.3664 57.6054 17.4387 57.6054 16.519 57.5514C15.8472 57.5114 15.3573 56.9116 15.3633 56.2918C15.3713 55.664 15.8692 55.1102 16.543 55.0502C17.0128 55.0082 17.4907 55.0422 17.9645 55.0422C17.9645 55.0382 17.9645 55.0382 17.9645 55.0362Z" fill="black"/>
<path d="M17.9352 34.511C17.4613 34.511 16.9855 34.541 16.5136 34.503C15.8098 34.445 15.4499 33.9891 15.374 33.3253C15.306 32.7335 15.7559 32.1137 16.4036 32.0658C17.4173 31.9918 18.445 31.9918 19.4567 32.0737C20.1185 32.1277 20.5043 32.7215 20.4423 33.3573C20.3784 34.0071 20.0145 34.427 19.3567 34.495C18.8888 34.543 18.411 34.505 17.9372 34.505C17.9352 34.507 17.9352 34.509 17.9352 34.511Z" fill="black"/>
<path d="M17.9187 42.2686C17.3948 42.2326 16.867 42.2366 16.3532 42.1486C15.6894 42.0347 15.3635 41.5428 15.3795 40.915C15.3955 40.2872 15.7473 39.7774 16.4131 39.7374C17.4068 39.6774 18.4085 39.6734 19.4002 39.7374C20.058 39.7794 20.4159 40.2553 20.4358 40.907C20.4558 41.5568 20.1299 42.0247 19.4782 42.1466C18.9703 42.2406 18.4405 42.2306 17.9187 42.2686Z" fill="black"/>
<path d="M55.3862 76.7754C37.2401 76.7754 19.0939 76.7754 0.947696 76.7754C0.083973 76.4015 0 75.6757 0 74.85C0.0099968 52.2433 0.00799744 29.6365 0.00799744 7.02975C0.00799744 6.90579 0.00599808 6.77983 0.0099968 6.65587C0.0419865 5.58421 0.49784 5.12236 1.58949 5.11436C3.33893 5.10236 5.08637 5.11036 6.83581 5.11036C7.09972 5.11036 7.36564 5.11036 7.68554 5.11036C7.68554 3.94074 7.71953 2.86908 7.67354 1.80142C7.63955 0.99968 7.86348 0.383877 8.59525 0.00199936C20.7933 0 32.9894 0 45.1875 0C45.4334 0.205934 45.6994 0.393874 45.9253 0.619801C51.7414 6.42994 57.5615 12.2361 63.3477 18.0742C63.6916 18.4221 63.8595 19.0159 63.9475 19.5237C64.0495 20.1056 63.9715 20.7194 63.9715 21.3192C63.9715 36.5603 63.9715 51.8014 63.9715 67.0425C63.9715 68.8079 63.6616 69.1118 61.8642 69.1138C60.2647 69.1138 58.6652 69.1118 57.0657 69.1158C56.8258 69.1158 56.5859 69.1418 56.294 69.1578C56.294 71.1392 56.268 73.0606 56.306 74.978C56.3239 75.7757 56.118 76.3935 55.3862 76.7754ZM61.3763 20.4774C60.9945 20.4774 60.6965 20.4774 60.3966 20.4774C55.4242 20.4774 50.4498 20.4774 45.4774 20.4774C43.8419 20.4774 43.5181 20.1475 43.5181 18.4901C43.5181 13.4937 43.5181 8.49528 43.5181 3.49888C43.5181 3.20697 43.5181 2.91507 43.5181 2.61116C32.3756 2.61116 21.3252 2.61116 10.2947 2.61116C10.2947 23.9443 10.2947 45.2175 10.2947 66.4907C27.3532 66.4907 44.3558 66.4907 61.3743 66.4907C61.3763 51.1496 61.3763 35.8665 61.3763 20.4774ZM2.59717 74.1662C19.6897 74.1662 36.6942 74.1662 53.6788 74.1662C53.6788 72.4528 53.6788 70.7953 53.6788 69.1098C53.2929 69.1098 52.969 69.1098 52.6431 69.1098C38.3457 69.1098 24.0503 69.1098 9.75287 69.1098C8.00543 69.1098 7.68354 68.7919 7.68354 67.0725C7.68354 47.6047 7.68354 28.137 7.68354 8.66722C7.68354 8.35332 7.68354 8.03742 7.68354 7.72552C5.9221 7.72552 4.26663 7.72552 2.59517 7.72552C2.59717 29.9004 2.59717 52.0133 2.59717 74.1662ZM46.1172 4.53455C46.1172 9.00511 46.1172 13.4137 46.1172 17.8283C50.5678 17.8283 54.9804 17.8283 59.4289 17.8283C54.9704 13.3777 50.5718 8.98312 46.1172 4.53455Z" fill="black"/>
<path d="M39.67 55.0283C44.5924 55.0283 49.5148 55.0283 54.4372 55.0283C54.6872 55.0283 54.9411 55.0163 55.185 55.0543C55.8268 55.1523 56.2747 55.6701 56.2826 56.2859C56.2906 56.8997 55.8548 57.4295 55.215 57.5455C54.9711 57.5895 54.7171 57.5795 54.4672 57.5795C44.5964 57.5815 34.7256 57.5815 24.8567 57.5795C24.6068 57.5795 24.3529 57.5875 24.109 57.5435C23.4712 57.4275 23.0273 56.8877 23.0393 56.2799C23.0513 55.6721 23.5131 55.1463 24.1509 55.0523C24.4209 55.0123 24.6988 55.0263 24.9747 55.0263C29.8751 55.0263 34.7715 55.0263 39.67 55.0283Z" fill="black"/>
<path d="M39.7156 39.6714C44.5621 39.6714 49.4105 39.6714 54.257 39.6734C54.5569 39.6734 54.8588 39.6754 55.1547 39.7134C55.8464 39.7994 56.2263 40.2192 56.2803 40.903C56.3283 41.5248 55.9004 42.0367 55.2446 42.1686C54.9787 42.2226 54.7008 42.2346 54.4269 42.2346C44.5821 42.2386 34.7372 42.2366 24.8924 42.2366C24.8424 42.2366 24.7924 42.2366 24.7424 42.2366C23.6628 42.2186 23.055 41.7607 23.047 40.959C23.039 40.1533 23.6408 39.6774 24.7224 39.6754C29.7208 39.6674 34.7192 39.6714 39.7156 39.6714Z" fill="black"/>
<path d="M39.6375 47.355C44.536 47.355 49.4324 47.355 54.3308 47.357C54.6307 47.357 54.9366 47.341 55.2285 47.393C55.8743 47.5089 56.2462 47.9208 56.2762 48.5726C56.3062 49.1924 55.9923 49.6302 55.3945 49.8062C55.1126 49.8882 54.8047 49.9102 54.5088 49.9102C44.6139 49.9162 34.7171 49.9162 24.8223 49.9102C24.5264 49.9102 24.2205 49.8842 23.9366 49.8042C23.3268 49.6322 23.0329 49.1644 23.0649 48.5626C23.0988 47.9268 23.4627 47.4909 24.1205 47.387C24.4144 47.341 24.7183 47.353 25.0182 47.353C29.8907 47.355 34.7631 47.355 39.6375 47.355Z" fill="black"/>
<path d="M39.6643 26.8592C34.7659 26.8592 29.8695 26.8592 24.971 26.8592C24.7211 26.8592 24.4692 26.8692 24.2213 26.8412C23.5255 26.7672 23.1436 26.3474 23.0596 25.6756C22.9837 25.0678 23.4035 24.5279 24.0533 24.372C24.2932 24.314 24.5472 24.306 24.7951 24.306C34.7159 24.302 44.6347 24.302 54.5555 24.308C54.8514 24.308 55.1613 24.33 55.4393 24.424C56.0291 24.6219 56.325 25.0718 56.275 25.6916C56.225 26.3094 55.8571 26.6992 55.2533 26.8212C54.9874 26.8752 54.7055 26.8572 54.4316 26.8572C49.5092 26.8592 44.5867 26.8592 39.6643 26.8592Z" fill="black"/>
<path d="M39.6358 34.541C34.7373 34.541 29.8409 34.541 24.9425 34.541C23.6589 34.541 23.0331 34.1151 23.0431 33.2554C23.0531 32.4017 23.6869 31.9798 24.9685 31.9798C34.7633 31.9798 44.5582 31.9778 54.353 31.9838C54.6989 31.9838 55.0588 31.9958 55.3907 32.0878C55.9905 32.2537 56.3004 32.7016 56.2744 33.3194C56.2484 33.9352 55.9065 34.3531 55.2967 34.481C54.9828 34.547 54.651 34.537 54.3271 34.539C49.4306 34.541 44.5342 34.541 39.6358 34.541Z" fill="black"/>
<path d="M20.4421 11.5307C21.6397 11.5307 22.8373 11.5227 24.035 11.5327C25.1006 11.5427 25.5665 11.9745 25.5745 13.0122C25.5905 15.4334 25.5905 17.8526 25.5745 20.2739C25.5685 21.2755 25.0946 21.7394 24.0969 21.7454C21.6757 21.7574 19.2565 21.7574 16.8353 21.7454C15.8536 21.7394 15.3617 21.2535 15.3557 20.2599C15.3398 17.8386 15.3398 15.4194 15.3557 12.9982C15.3637 12.0125 15.8556 11.5447 16.8493 11.5327C18.0469 11.5187 19.2445 11.5307 20.4421 11.5307ZM17.9409 19.1402C19.6644 19.1402 21.3218 19.1402 22.9853 19.1402C22.9853 17.4468 22.9853 15.8073 22.9853 14.1278C21.2918 14.1278 19.6344 14.1278 17.9409 14.1278C17.9409 15.8093 17.9409 17.4488 17.9409 19.1402Z" fill="black"/>
<path d="M17.884 26.8497C17.4601 26.8497 17.0343 26.8716 16.6104 26.8437C15.9106 26.7977 15.4168 26.3178 15.3668 25.674C15.3188 25.0562 15.7667 24.4164 16.4464 24.3625C17.4121 24.2865 18.3938 24.2845 19.3595 24.3585C20.0613 24.4124 20.4772 25.0022 20.4452 25.656C20.4132 26.3358 19.9133 26.8097 19.1576 26.8497C18.7337 26.8716 18.3079 26.8537 17.884 26.8537C17.884 26.8517 17.884 26.8517 17.884 26.8497Z" fill="black"/>
<path d="M17.9151 47.3707C18.365 47.3707 18.8168 47.3427 19.2627 47.3767C19.9525 47.4307 20.3743 47.8266 20.4343 48.5143C20.4943 49.2041 20.1524 49.7539 19.4726 49.8139C18.437 49.9059 17.3833 49.9019 16.3456 49.8139C15.7018 49.7599 15.284 49.1001 15.3759 48.5103C15.4799 47.8445 15.8658 47.4207 16.5656 47.3747C17.0134 47.3467 17.4653 47.3707 17.9151 47.3707Z" fill="black"/>
<path d="M17.9645 55.0362C18.3884 55.0362 18.8162 55.0082 19.2381 55.0422C19.9679 55.1002 20.4577 55.636 20.4517 56.3158C20.4457 56.9616 19.9779 57.5174 19.2881 57.5554C18.3664 57.6054 17.4387 57.6054 16.519 57.5514C15.8472 57.5114 15.3573 56.9116 15.3633 56.2918C15.3713 55.664 15.8692 55.1102 16.543 55.0502C17.0128 55.0082 17.4907 55.0422 17.9645 55.0422C17.9645 55.0382 17.9645 55.0382 17.9645 55.0362Z" fill="black"/>
<path d="M17.9352 34.511C17.4613 34.511 16.9855 34.541 16.5136 34.503C15.8098 34.445 15.4499 33.9891 15.374 33.3253C15.306 32.7335 15.7559 32.1137 16.4036 32.0658C17.4173 31.9918 18.445 31.9918 19.4567 32.0737C20.1185 32.1277 20.5043 32.7215 20.4423 33.3573C20.3784 34.0071 20.0145 34.427 19.3567 34.495C18.8888 34.543 18.411 34.505 17.9372 34.505C17.9352 34.507 17.9352 34.509 17.9352 34.511Z" fill="black"/>
<path d="M17.9187 42.2686C17.3948 42.2326 16.867 42.2366 16.3532 42.1486C15.6894 42.0347 15.3635 41.5428 15.3795 40.915C15.3955 40.2872 15.7473 39.7774 16.4131 39.7374C17.4068 39.6774 18.4085 39.6734 19.4002 39.7374C20.058 39.7794 20.4159 40.2553 20.4358 40.907C20.4558 41.5568 20.1299 42.0247 19.4782 42.1466C18.9703 42.2406 18.4405 42.2306 17.9187 42.2686Z" fill="black"/>
</svg>
