<svg width="100" height="99" viewBox="0 0 100 99" fill="none" xmlns="http://www.w3.org/2000/svg">
<path fill-rule="evenodd" clip-rule="evenodd" d="M99.7305 69.4817C99.8137 68.9114 99.8969 68.3412 99.9948 67.7751C99.9948 66.1522 99.9948 64.5294 100 62.8987C99.96 62.6546 99.9209 62.4103 99.8818 62.1659C99.8035 61.6772 99.7253 61.1884 99.6401 60.702C97.2819 47.34 89.6466 38.4233 76.849 33.9183C75.7821 33.5444 75.2708 32.9679 74.9317 31.9241C75.514 31.9241 76.0894 31.9291 76.6599 31.9341C77.8759 31.9447 79.0696 31.9552 80.261 31.9163C84.9199 31.7683 88.7519 27.8786 88.8588 23.2411C88.9736 18.2271 85.0399 14.0908 80.008 14.0362C76.6049 14.0016 73.2004 14.0092 69.7966 14.0168C68.3526 14.02 66.9088 14.0233 65.4652 14.0233H64.3148C64.3596 13.9358 64.397 13.8622 64.4296 13.7981C64.4976 13.6643 64.5446 13.5719 64.594 13.4806C68.019 7.09038 63.7697 0.0120965 56.4839 0.0069033C40.7673 -0.00348303 25.0507 -0.00607961 9.3367 0.027676C8.22024 0.0302725 7.05421 0.212033 5.99774 0.567765C1.99098 1.91799 -0.544546 6.11147 0.0997695 10.1284C0.819734 14.5997 4.36478 17.8376 8.7576 17.9C11.938 17.945 15.1197 17.9363 18.3018 17.9276C19.7079 17.9238 21.1142 17.9199 22.5204 17.9207H24.5864C22.5621 21.3274 22.5674 24.6485 24.5916 28.0578C23.9831 28.0578 23.3899 28.0532 22.8073 28.0488C21.5714 28.0394 20.3831 28.0303 19.1971 28.0656C13.8026 28.2266 9.74886 33.2665 10.7114 38.5532C11.1105 40.7473 12.2244 42.5181 13.9356 44.0138C11.7861 45.8989 10.5784 48.1917 10.5732 51.0168C10.5679 53.8678 11.807 56.1762 13.933 58.0483C11.7261 59.9828 10.5549 62.2911 10.5732 65.124C10.5914 67.9413 11.8279 70.2185 13.9382 72.0724C11.8853 73.8355 10.7219 75.9621 10.5862 78.5535C10.3149 83.7363 14.3347 87.9895 19.5623 88.0155C26.3028 88.0488 33.0433 88.0341 39.7839 88.0194C40.3969 88.0181 41.0099 88.0168 41.6229 88.0155C42.2438 88.0155 42.6977 88.1635 43.1646 88.6179C51.4337 96.6699 61.3306 100.121 72.691 97.9214C86.5685 95.2365 95.3124 86.6938 99.0505 73.1059C99.3742 71.9251 99.5524 70.7034 99.7305 69.4817ZM96.0898 65.3992C96.1133 81.498 82.9609 94.6393 66.8139 94.6471C50.6694 94.6549 37.5066 81.5266 37.5144 65.4252C37.5223 49.3186 50.6903 36.2059 66.8373 36.2266C82.9478 36.2474 96.0663 49.329 96.0898 65.3992ZM26.478 3.89802C28.6431 3.8986 30.8081 3.89918 32.9729 3.89918C35.4437 3.89918 37.9146 3.89791 40.3854 3.89664C45.8211 3.89385 51.2569 3.89107 56.6926 3.90178C60.2324 3.90957 62.6662 7.0774 61.7115 10.3777C61.0933 12.5198 59.1447 13.9973 56.8335 14.0181C54.851 14.0365 52.8698 14.0327 50.888 14.0289C50.0719 14.0274 49.2556 14.0259 48.4391 14.0259C45.1778 14.0259 41.9164 14.026 38.6549 14.0262C28.87 14.0267 19.0843 14.0271 9.30018 14.0233C6.32381 14.0207 4.05957 11.9823 3.93436 9.22737C3.79872 6.26986 6.09165 3.90957 9.15671 3.90437C14.9298 3.89493 20.7042 3.89648 26.478 3.89802ZM62.4528 28.0486C60.2962 28.048 58.1397 28.0474 55.9831 28.0474C53.2049 28.0465 50.4265 28.0478 47.6479 28.0491C42.4874 28.0516 37.3266 28.054 32.1669 28.0422C28.6323 28.0318 26.2089 24.8406 27.1793 21.5404C27.7636 19.554 29.6105 18.0739 31.6869 17.9337C31.7834 17.9259 31.8825 17.9233 31.9791 17.9233C36.239 17.9233 40.4989 17.9226 44.7588 17.9218C56.4737 17.9198 68.1887 17.9178 79.9036 17.9311C82.8331 17.9337 85.0764 20.3459 84.9512 23.2307C84.8338 25.9571 82.5879 28.037 79.7002 28.0422C73.9521 28.0516 68.2026 28.0501 62.4528 28.0486ZM68.8459 32.0877C68.8485 32.1292 68.8538 32.1708 68.859 32.2123C68.1665 32.2598 67.4727 32.2961 66.7791 32.3324C65.2362 32.413 63.694 32.4937 62.168 32.6979C55.1796 33.6223 49.1513 36.6057 44.0254 41.4068C43.5115 41.8898 43.0133 42.0871 42.3116 42.0845C38.4293 42.0725 34.5469 42.0728 30.6646 42.0732C26.9977 42.0735 23.3309 42.0738 19.664 42.0637C16.1711 42.0534 13.7608 38.9297 14.6634 35.6502C15.2268 33.6015 17.0763 32.0929 19.1997 31.9553C19.4293 31.9389 19.6606 31.9402 19.8909 31.9416C19.9536 31.9419 20.0162 31.9423 20.0788 31.9423C23.1956 31.9423 26.3123 31.9422 29.4291 31.9421C41.8985 31.9416 54.3679 31.9412 66.8373 31.9475C67.297 31.9475 67.7554 31.9902 68.2142 32.0329C68.4246 32.0525 68.6352 32.0722 68.8459 32.0877ZM39.692 45.9947C39.749 46.004 39.8197 46.0155 39.9117 46.0287C38.044 48.6876 36.5675 51.4088 35.5319 54.3612C34.9207 56.0931 34.9085 56.0931 33.029 56.0931H33.0121C31.7414 56.0931 30.4708 56.0949 29.2002 56.0968C25.9528 56.1015 22.7054 56.1062 19.4579 56.0801C16.9694 56.0593 14.9321 54.2391 14.5225 51.7879C14.1312 49.451 15.5686 47.0518 17.8693 46.2702C18.3832 46.0962 18.9467 45.982 19.4866 45.9794C25.1269 45.9618 30.7653 45.9647 36.4034 45.9676C37.4276 45.9681 38.4518 45.9686 39.4761 45.969C39.5342 45.969 39.5923 45.9785 39.692 45.9947ZM30.17 74.004C31.5952 74.0081 33.0077 74.0121 34.4024 74.0121L34.7604 74.7899C36.2293 77.9815 37.6371 81.0403 39.0561 84.1102C39.1109 84.105 38.9961 84.1284 38.8813 84.1284C37.1252 84.1291 35.3691 84.1315 33.613 84.134C28.9286 84.1405 24.2441 84.147 19.5597 84.1206C15.8581 84.0998 13.4243 80.3971 14.9008 77.0683C15.7329 75.1883 17.2433 74.064 19.304 74.0355C22.9507 73.9835 26.6 73.9939 30.17 74.004ZM33.8024 59.9854V70.112H25.4211C24.8157 70.112 24.21 70.1136 23.6043 70.1151C22.2916 70.1185 20.9785 70.1219 19.6666 70.1094C16.7294 70.0835 14.473 67.8738 14.473 65.0487C14.473 62.2236 16.732 60.0009 19.6666 59.9905C22.8796 59.9777 26.0913 59.9804 29.3035 59.9831C30.6421 59.9842 31.9809 59.9854 33.3199 59.9854H33.8024ZM74.9182 76.2158C76.4024 74.8083 77.1445 73.0937 77.1445 71.072C77.1445 69.4341 76.7364 68.129 75.92 67.1565C75.1285 66.1585 74.1513 65.4163 72.9887 64.9301C71.826 64.4183 70.3418 63.9321 68.536 63.4714V54.5273C70.7376 54.6553 72.8403 55.3718 74.844 56.677L76.0685 53.606C75.1037 52.9151 73.9534 52.3649 72.6176 51.9554C71.3066 51.546 69.946 51.3156 68.536 51.2645V46.9268H66.1612V51.3028C63.4154 51.5332 61.3251 52.3521 59.8904 53.7596C58.4803 55.1671 57.7753 56.8817 57.7753 58.9034C57.7753 60.5156 58.1588 61.8208 58.9256 62.8188C59.7172 63.8169 60.6819 64.5718 61.8199 65.0837C62.9825 65.5955 64.4296 66.0689 66.1612 66.504V75.4097C64.677 75.3073 63.2546 74.9874 61.8941 74.45C60.5335 73.887 59.408 73.1832 58.5174 72.3387L57.1445 75.3329C58.1093 76.2542 59.3956 77.0219 61.0035 77.6361C62.6362 78.2247 64.3554 78.5702 66.1612 78.6725V83.0102H68.536V78.6725C71.3313 78.4422 73.4587 77.6233 74.9182 76.2158ZM62.6362 61.3218C61.8199 60.7076 61.4117 59.8503 61.4117 58.7499C61.4117 57.675 61.8075 56.7665 62.5991 56.0244C63.3907 55.2567 64.578 54.7704 66.1612 54.5657V62.8572C64.6275 62.4478 63.4525 61.9359 62.6362 61.3218ZM72.2466 74.0661C71.4303 74.7827 70.1934 75.2177 68.536 75.3713V67.1181C70.1439 67.5788 71.3684 68.1162 72.2095 68.7304C73.0753 69.319 73.5082 70.1763 73.5082 71.3023C73.5082 72.4027 73.0876 73.324 72.2466 74.0661Z" fill="#141414"/>
</svg>
