<svg width="30" height="23" viewBox="0 0 30 23" fill="none" xmlns="http://www.w3.org/2000/svg">
<path d="M0 20.51C0 14.4551 0 8.40015 0 2.34448C0.0871582 2.06689 0.13916 1.77173 0.267334 1.51538C0.79248 0.467285 1.67212 0 2.83008 0C10.9431 0.00219727 19.0562 0.00146484 27.1692 0.00146484C27.2183 0.00146484 27.2666 0.000732422 27.3157 0.00146484C28.2078 0.0249023 28.9702 0.346436 29.4697 1.09644C29.7158 1.46631 29.8271 1.92627 30 2.34521C30 8.40015 30 14.4551 30 20.5107C29.9128 20.7883 29.8608 21.0828 29.7319 21.3398C29.2068 22.3894 28.3257 22.856 27.1692 22.856C19.0562 22.8545 10.9431 22.8552 2.83008 22.8552C2.78101 22.8552 2.73267 22.856 2.68359 22.8545C1.7915 22.8311 1.02905 22.5095 0.529541 21.7595C0.28418 21.3889 0.172119 20.9297 0 20.51ZM3.02563 1.77612C7.05835 5.77441 11.0522 9.73389 15.0117 13.6589C18.9968 9.67602 22.9497 5.72461 26.9004 1.77612C18.98 1.77612 11.0391 1.77612 3.02563 1.77612ZM3.08203 21.0725C11.0339 21.0725 18.9814 21.0725 26.8521 21.0725C24.093 18.3135 21.3083 15.5281 18.5076 12.7266C17.6353 13.6018 16.7344 14.5085 15.8306 15.4131C15.2791 15.9653 14.8359 15.9624 14.2764 15.4072C13.4165 14.5547 12.5581 13.7014 11.6982 12.8496C11.6257 12.7771 11.5488 12.709 11.4954 12.6592C8.67554 15.479 5.88208 18.2732 3.08203 21.0725ZM1.76807 19.7292C4.55859 16.9387 7.35718 14.1401 10.1653 11.3313C7.39893 8.58838 4.60474 5.81689 1.76807 3.00366C1.76807 8.64404 1.76807 14.2061 1.76807 19.7292ZM19.9102 11.4163C22.675 14.1819 25.4575 16.9644 28.2246 19.7314C28.2246 14.2083 28.2246 8.64404 28.2246 3.10107C25.448 5.87695 22.6699 8.65576 19.9102 11.4163Z" fill="white"/>
</svg>
