<svg width="31" height="31" viewBox="0 0 31 31" fill="none" xmlns="http://www.w3.org/2000/svg">
<path d="M0 8.27021C0.04366 7.92331 0.0682684 7.57245 0.135743 7.23031C0.30562 6.37775 0.685859 5.62442 1.29551 5.00127C2.10124 4.17649 2.87918 3.31758 3.74682 2.56266C5.06853 1.41321 6.50217 1.41877 7.77466 2.61029C9.12812 3.87881 10.426 5.21084 11.6906 6.56827C12.6304 7.57721 12.6225 9.12277 11.7112 10.1603C11.0357 10.9295 10.2895 11.6384 9.56472 12.3631C9.42739 12.5005 9.39167 12.5894 9.48534 12.7791C10.2125 14.2508 11.2389 15.5011 12.3494 16.6887C13.4878 17.9064 14.7404 18.9947 16.1487 19.8925C16.5495 20.1481 16.979 20.3601 17.4267 20.6101C17.9093 20.1211 18.3777 19.6377 18.8564 19.1654C19.1763 18.8502 19.4978 18.5335 19.8423 18.2469C20.8623 17.3983 22.4087 17.3848 23.3661 18.2977C24.7648 19.6329 26.1349 21.0015 27.4614 22.4081C28.4441 23.4504 28.4592 25.0293 27.509 26.101C26.6294 27.0932 25.7054 28.0561 24.7235 28.946C23.6987 29.8756 22.4159 30.1161 21.0576 30.001C18.515 29.7859 16.2566 28.7547 14.0696 27.5417C11.3834 26.0517 8.99238 24.1728 6.90067 21.9255C4.34378 19.1781 2.22825 16.1385 0.899397 12.5997C0.448508 11.3994 0.0936706 10.173 0.0428662 8.87828C0.0404848 8.8116 0.0150826 8.7465 0.000793819 8.68062C0 8.54408 0 8.40675 0 8.27021ZM1.72656 8.5163C1.75831 8.85605 1.7845 9.1966 1.8234 9.53635C1.84087 9.69115 1.87818 9.84356 1.91231 9.99597C2.3759 12.067 3.24275 13.9738 4.34854 15.7678C7.29122 20.5442 11.2071 24.2791 16.2646 26.7678C17.8212 27.5338 19.4279 28.1538 21.1799 28.3062C22.2476 28.3991 23.193 28.1562 23.9598 27.3631C24.6187 26.682 25.2887 26.0113 25.9476 25.331C26.6612 24.5943 26.6628 23.9799 25.9483 23.2472C25.4641 22.7503 24.9688 22.2644 24.4782 21.7739C23.7939 21.0904 23.1152 20.3998 22.4222 19.725C21.8943 19.2106 21.3085 19.2059 20.7504 19.6861C20.6544 19.7687 20.5647 19.8592 20.4742 19.9489C19.8034 20.6181 19.1358 21.292 18.461 21.9572C17.9895 22.4216 17.4688 22.5359 16.9091 22.2589C16.3328 21.9731 15.7605 21.6715 15.2175 21.3277C13.3957 20.1735 11.8247 18.7272 10.4133 17.1046C9.42977 15.9742 8.53276 14.7827 7.90088 13.4118C7.40395 12.3338 7.4746 11.9972 8.32954 11.17C9.00349 10.5183 9.67586 9.86261 10.3188 9.18072C10.807 8.66236 10.7912 8.12574 10.3395 7.57642C10.2839 7.50894 10.2252 7.44226 10.1633 7.37955C9.00349 6.2174 7.84531 5.05366 6.68157 3.89627C6.55853 3.77403 6.41247 3.66527 6.25926 3.58589C5.76074 3.32711 5.26381 3.4438 4.75418 3.9439C4.09849 4.58769 3.46502 5.2537 2.80059 5.88796C2.04567 6.60875 1.69242 7.47639 1.72656 8.5163Z" fill="white"/>
<path d="M16.8347 0C17.5118 0.175434 18.1969 0.327053 18.8661 0.531859C21.0443 1.19787 22.9836 2.30207 24.6919 3.80557C26.5066 5.40273 27.9125 7.30551 28.8817 9.52424C29.4033 10.7181 29.77 11.9605 29.9883 13.2449C30.0661 13.7053 29.8073 14.0903 29.3715 14.2014C28.9309 14.3141 28.484 14.0871 28.3562 13.6386C28.1768 13.0107 28.0609 12.3653 27.8728 11.7406C27.0258 8.92887 25.4334 6.61172 23.1686 4.75418C21.2753 3.20068 19.1193 2.20126 16.7109 1.74799C16.0528 1.62415 15.7599 1.32012 15.7781 0.818427C15.7932 0.388177 16.0679 0.161145 16.4251 0C16.5616 0 16.6982 0 16.8347 0Z" fill="white"/>
<path d="M15.5313 6.3082C15.5305 5.76125 15.9996 5.36117 16.5585 5.46595C19.1955 5.95733 21.3039 7.2965 22.8788 9.46521C23.7354 10.6448 24.2728 11.9642 24.5419 13.3954C24.6379 13.9066 24.3918 14.3448 23.9243 14.4671C23.4702 14.5853 23.0273 14.3051 22.8772 13.8074C22.6835 13.1644 22.5557 12.4905 22.2787 11.8856C21.0951 9.30407 19.0899 7.72834 16.3028 7.15679C15.8051 7.05438 15.532 6.74956 15.5313 6.3082Z" fill="white"/>
</svg>
