<svg width="238" height="120" viewBox="0 0 238 120" fill="none" xmlns="http://www.w3.org/2000/svg">
<path d="M12.7353 93.3187L5.14014 77.6411H0V97.6762H3.75921V83.3299L10.6639 97.6858H14.6245L21.7305 83.3299V97.6858H25.4897V77.6411H20.4551L12.7353 93.3187Z" fill="#00FFFF"/>
<path d="M46.7671 77.2583C42.2407 77.2583 39.2008 78.3788 37.0047 80.706C35.3457 82.4395 34.5977 84.7092 34.5977 87.5728C34.5977 90.714 35.547 93.0891 37.2349 94.7747C39.3063 96.8433 42.4517 97.9926 46.7671 97.9926C51.2168 97.9926 54.5636 96.8912 56.5296 94.6981C58.0927 93.0125 58.9366 90.6661 58.9366 87.5728C58.9366 84.5368 58.2461 82.2671 56.5583 80.5528C54.4102 78.3597 51.2935 77.2583 46.7671 77.2583ZM53.2786 92.5049C51.821 93.884 49.8551 94.5736 46.7863 94.5736C43.9477 94.5736 42.0585 93.9606 40.6009 92.7348C39.2199 91.5855 38.6062 89.8234 38.6062 87.6302C38.6062 85.6382 39.1432 83.8569 40.2461 82.8034C41.5503 81.5297 43.6504 80.706 46.7671 80.7156C49.9893 80.7156 51.8785 81.4818 53.317 82.7555C54.4965 83.7803 54.9568 85.6382 54.9472 87.6302C54.9472 89.6222 54.4582 91.4323 53.2786 92.5049Z" fill="#00FFFF"/>
<path d="M85.0432 92.1982L72.5189 77.6507L68.1172 77.6411V97.6858H71.9243V82.9564L84.6021 97.6858H88.7737V77.6507H85.0432V92.1982Z" fill="#00FFFF"/>
<path d="M96.7812 81.1173L105.729 81.1268V97.6951H109.747V81.1268H118.665V77.6504H96.7812V81.1173Z" fill="#00FFFF"/>
<path d="M130.556 89.3439H145.305L145.315 85.877H130.556V81.146L145.746 81.1556V77.6504H126.701L126.691 97.6951H145.919V94.1707H130.556V89.3439Z" fill="#00FFFF"/>
<path d="M175.224 86.7785C175.714 85.9931 175.963 84.8152 175.963 83.4361C175.963 81.9038 175.656 80.8311 175.013 79.9596C174.045 78.5518 172.156 77.6611 169.164 77.6611H155.508V97.7058H159.392V89.5845H167.955L173.45 97.7058H177.9L171.868 88.9429C173.383 88.7418 174.563 87.8511 175.224 86.7785ZM169.116 86.2134H159.43C159.43 86.1943 159.43 81.0801 159.43 81.0801H168.713C170.372 81.0801 171.273 81.4632 171.753 82.2006C172.012 82.555 172.108 83.1679 172.108 83.733C172.108 84.2214 172.002 84.8056 171.753 85.2653C171.389 85.907 170.545 86.2134 169.116 86.2134Z" fill="#00FFFF"/>
<path d="M190.443 89.3547H205.192V85.8878L190.443 85.8782V81.1567H205.623V77.6611H186.578V97.7058H205.806V94.1815H190.433L190.443 89.3547Z" fill="#00FFFF"/>
<path d="M233.656 77.6411L225.265 87.7544L217.133 77.6603H212.664L223.242 91.0968V97.7049H227.183V91.0681L238 77.6411H233.656Z" fill="#00FFFF"/>
<path d="M141.296 56.4566L163.295 43.7766C164.638 43.0008 165.472 41.5739 165.472 40.0224V17.0376C165.472 15.4861 164.647 14.0591 163.305 13.2834L141.075 0.584245C139.733 -0.191493 138.074 -0.191493 136.731 0.584245L118.885 10.87L101.047 0.584245C99.7049 -0.191493 98.0458 -0.191493 96.7033 0.584245L74.7042 13.2642C73.3617 14.04 72.5273 15.4669 72.5273 17.0184V40.0032C72.5273 41.5547 73.3521 42.9817 74.6946 43.7574L96.9047 56.447C97.5759 56.8301 98.3239 57.0312 99.0815 57.0312C99.8295 57.0312 100.578 56.8396 101.249 56.447L119.105 46.1613L136.952 56.4566C138.294 57.2323 139.953 57.2323 141.296 56.4566ZM87.9861 10.6784V46.3528L76.9866 40.0032V17.0184L87.9861 10.6784L98.9856 4.33844L119 15.8787L139.014 4.33844L161.013 17.028V40.0128L150.013 46.3528V10.6784L119 28.5587L87.9861 10.6784Z" fill="#00FFFF"/>
<path d="M81.6945 119.876V112.626L78.0504 119.876H77.0338L73.4664 112.626V119.876H72.5938V111.458H73.8404L77.5613 118.985L81.3301 111.458H82.5672V119.876H81.6945Z" fill="#00FFFF"/>
<path d="M93.9219 119.876V111.458H94.8425V119.876H93.9219Z" fill="#00FFFF"/>
<path d="M113.129 119.876L107.078 112.635V119.876H106.195V111.458H107.269L113.301 118.698V111.458H114.164V119.876H113.129Z" fill="#00FFFF"/>
<path d="M125.512 119.876V111.458H126.432V119.876H125.512Z" fill="#00FFFF"/>
<path d="M144.719 119.876L138.667 112.635V119.876H137.785V111.458H138.859L144.891 118.698V111.458H145.754V119.876H144.719Z" fill="#00FFFF"/>
<path d="M164.601 119.876L164.563 118.535C164.179 119.052 163.258 119.991 160.899 119.991C159.403 119.991 158.003 119.617 157.207 118.64C156.661 118.018 156.363 117.041 156.363 115.662C156.363 114.503 156.565 113.526 157.178 112.789C157.859 111.917 159.077 111.333 161.062 111.333C163.086 111.333 164.294 112.023 164.879 112.952C165.167 113.382 165.32 113.852 165.359 114.34H164.447C164.409 113.957 164.256 113.564 163.997 113.268C163.527 112.664 162.587 112.185 161.12 112.185C159.518 112.185 158.521 112.568 157.955 113.268C157.504 113.804 157.303 114.599 157.303 115.681C157.303 116.83 157.543 117.587 157.994 118.104C158.588 118.813 159.653 119.177 161.024 119.177C162.836 119.177 163.786 118.516 164.275 117.74C164.515 117.367 164.543 116.591 164.543 116.198H160.496V115.336H165.416V119.885H164.601V119.876Z" fill="#00FFFF"/>
</svg>
