<svg width="23" height="33" viewBox="0 0 23 33" fill="none" xmlns="http://www.w3.org/2000/svg">
<path d="M11.2478 32.7207C11.0015 32.4821 10.7101 32.2759 10.5167 32.0007C8.58666 29.2475 6.64215 26.5046 4.76411 23.7165C3.21073 21.4107 1.85588 18.9882 0.922826 16.3535C0.336577 14.6978 -0.0281233 13.0013 0.00170032 11.2323C0.0852066 6.28585 3.53453 1.79015 8.30291 0.46342C9.00589 0.267436 9.74041 0.188191 10.4604 0.052706C10.532 0.0390723 10.6019 0.0177697 10.6726 -0.000976562C11.2265 -0.000976562 11.7803 -0.000976562 12.3342 -0.000976562C12.9605 0.106389 13.5945 0.181374 14.2122 0.327084C18.7693 1.40159 22.2663 5.2923 22.8961 9.92775C23.225 12.352 22.741 14.6476 21.8846 16.8911C20.8612 19.5702 19.4135 22.0251 17.8081 24.3854C16.0068 27.0329 14.1535 29.6454 12.3104 32.2648C12.1783 32.4531 11.9457 32.5707 11.759 32.7207C11.5886 32.7207 11.4182 32.7207 11.2478 32.7207ZM11.4966 30.0417C11.552 29.9769 11.5827 29.9479 11.6057 29.9139C13.2204 27.6012 14.8624 25.3074 16.4414 22.9701C17.9564 20.7273 19.3087 18.3883 20.2358 15.8294C20.8876 14.0289 21.2736 12.1841 21.0078 10.2567C20.2647 4.87221 15.3592 1.21583 9.99348 2.03896C4.70447 2.85187 1.06939 8.02159 2.07317 13.2791C2.42338 15.1145 3.09228 16.8315 3.92564 18.4905C5.26856 21.1619 6.94976 23.6219 8.66761 26.0572C9.59981 27.378 10.5388 28.6936 11.4966 30.0417Z" fill="white"/>
<path d="M11.483 17.255C8.3174 17.2473 5.7432 14.6561 5.75001 11.4846C5.75683 8.31899 8.34808 5.74564 11.5205 5.75245C14.6869 5.75927 17.2602 8.34967 17.2534 11.5221C17.2457 14.6876 14.6545 17.2618 11.483 17.255ZM7.66725 11.4999C7.66639 13.6097 9.39702 15.3395 11.506 15.3378C13.6022 15.3361 15.3285 13.6157 15.3353 11.5221C15.3421 9.40884 13.62 7.6731 11.5119 7.66884C9.40043 7.66543 7.6681 9.39094 7.66725 11.4999Z" fill="white"/>
</svg>
