<svg width="155" height="26" viewBox="0 0 155 26" fill="none" xmlns="http://www.w3.org/2000/svg">
<path fill-rule="evenodd" clip-rule="evenodd" d="M40.2999 19.3197L30.5325 24.916C29.9364 25.2583 29.1998 25.2583 28.6038 24.916L20.68 20.3721L12.752 24.9117C12.454 25.085 12.1219 25.1696 11.7898 25.1696C11.4534 25.1696 11.1213 25.0808 10.8233 24.9117L0.962259 19.3112C0.36617 18.9688 0 18.339 0 17.6543V7.50997C0 6.82523 0.370429 6.19544 0.966518 5.85307L10.7339 0.256778C11.3299 -0.0855928 12.0665 -0.0855928 12.6626 0.256778L20.5821 4.79637L28.5058 0.256778C29.1019 -0.0855928 29.8385 -0.0855928 30.4346 0.256778L40.3041 5.86152C40.9002 6.20389 41.2664 6.83369 41.2664 7.51843V17.6628C41.2664 18.3475 40.896 18.9773 40.2999 19.3197ZM6.86354 20.4567V4.71183L20.6332 12.6033L34.401 4.71288L29.5192 1.91369L20.6332 7.00698L11.7472 1.91369L6.86354 4.71183L1.97987 7.50997V17.6543L6.86354 20.4567ZM34.4028 4.71394L39.2865 7.5142V17.6585L34.4028 20.4567V4.71394ZM70.0906 7.9917C68.081 7.9917 66.7312 8.48623 65.7562 9.51335C65.0196 10.2784 64.6875 11.2802 64.6875 12.544C64.6875 13.9304 65.109 14.9786 65.8584 15.7225C66.7781 16.6355 68.1746 17.1427 70.0906 17.1427C72.0662 17.1427 73.5522 16.6566 74.4251 15.6887C75.1191 14.9448 75.4938 13.9092 75.4938 12.544C75.4938 11.2041 75.1872 10.2023 74.4378 9.44572C73.4841 8.47778 72.1003 7.9917 70.0906 7.9917ZM72.9817 14.7208C72.3345 15.3294 71.4616 15.6338 70.0992 15.6338C68.8388 15.6338 68.0001 15.3632 67.3529 14.8222C66.7398 14.315 66.4673 13.5373 66.4673 12.5693C66.4673 11.6902 66.7057 10.904 67.1953 10.439C67.7744 9.87685 68.7068 9.51335 70.0906 9.51758C71.5212 9.51758 72.36 9.85572 72.9987 10.4179C73.5224 10.8702 73.7268 11.6902 73.7225 12.5693C73.7225 13.4485 73.5054 14.2474 72.9817 14.7208ZM54.9903 15.075L51.6181 8.15576H49.3359V16.9982H51.005V10.6665L54.0706 17.0025H55.8291L58.9841 10.6665V17.0025H60.6531V8.15576H58.4178L54.9903 15.075ZM81.5403 8.15999L87.1009 14.5805V8.15999H88.7572V17.0025H86.9051L81.2763 10.5016V17.0025H79.5859V8.15576L81.5403 8.15999ZM92.3008 9.69856L96.2733 9.70279V17.0152H98.0573V9.70279H102.017V8.16846H92.3008V9.69856ZM113.85 13.3294H107.302V15.4597H114.123V17.0152H105.586L105.59 8.16846H114.046V9.71547L107.302 9.71124V11.7993H113.855L113.85 13.3294ZM127.133 12.1943C127.35 11.8477 127.461 11.3278 127.461 10.7192C127.461 10.0429 127.324 9.56948 127.039 9.18484C126.609 8.5635 125.77 8.17041 124.442 8.17041H118.379V17.0171H120.103V13.4328H123.906L126.345 17.0171H128.321L125.643 13.1496C126.315 13.0608 126.839 12.6677 127.133 12.1943ZM124.421 11.9449H120.12V9.67938H124.242C124.978 9.67938 125.379 9.84845 125.592 10.1739C125.707 10.3303 125.749 10.6008 125.749 10.8502C125.749 11.0658 125.702 11.3236 125.592 11.5265C125.43 11.8097 125.055 11.9449 124.421 11.9449ZM140.432 13.3313H133.884L133.88 15.4616H140.705V17.0171H132.168V8.17041H140.624V9.71319H133.884V11.797L140.432 11.8012V13.3313ZM153.07 8.15576L149.345 12.6193L145.734 8.16421H143.75L148.446 14.0944V17.0109H150.196V14.0817L154.999 8.15576H153.07Z" fill="#00FFFF"/>
</svg>
