<svg width="126" height="231" viewBox="0 0 126 231" fill="none" xmlns="http://www.w3.org/2000/svg">
<g opacity="0.12">
<path d="M112.618 0.995605H13.382C5.99171 0.995605 0 6.97083 0 14.3454V179.084V216.668C0 224.099 6.05519 230.017 13.382 230.017H112.618C120.006 230.017 126 224.044 126 216.668V51.9291V14.3454C126 6.90546 119.937 0.995605 112.618 0.995605Z" fill="#276ED8"/>
<path d="M119.514 19.1899H6.48828V211.823H119.514V19.1899Z" fill="white"/>
<path d="M86.3032 13.1367H39.8828C39.3463 13.1367 38.9102 12.7037 38.9102 12.1664V11.6925C38.9102 11.1573 39.3443 10.7222 39.8828 10.7222H86.3032C86.8397 10.7222 87.2759 11.1552 87.2759 11.6925V12.1664C87.2739 12.7016 86.8397 13.1367 86.3032 13.1367Z" fill="white"/>
<path d="M119.514 200.43H6.48828V211.825H119.514V200.43Z" fill="#84B5FF"/>
<path d="M119.514 19.1899H6.48828V29.4122H119.514V19.1899Z" fill="#84B5FF"/>
</g>
</svg>
