<svg width="190" height="31" viewBox="0 0 190 31" fill="none" xmlns="http://www.w3.org/2000/svg">
<path d="M67.3889 18.4782L63.2548 10H60.457V20.8347H62.5032V13.0764L66.2614 20.8399H68.4172L72.2851 13.0764V20.8399H74.3312V10H71.5908L67.3889 18.4782Z" fill="#00FFFF"/>
<path d="M85.913 9.79297C83.4492 9.79297 81.7946 10.3989 80.5992 11.6575C79.6962 12.5949 79.2891 13.8223 79.2891 15.3709C79.2891 17.0696 79.8058 18.3541 80.7245 19.2656C81.852 20.3843 83.5641 21.0058 85.913 21.0058C88.3349 21.0058 90.1566 20.4102 91.2267 19.2241C92.0775 18.3126 92.5369 17.0437 92.5369 15.3709C92.5369 13.7291 92.161 12.5016 91.2424 11.5746C90.0731 10.3886 88.3767 9.79297 85.913 9.79297ZM89.4572 18.0381C88.6638 18.7839 87.5937 19.1568 85.9234 19.1568C84.3783 19.1568 83.3501 18.8254 82.5566 18.1624C81.805 17.5409 81.4709 16.588 81.4709 15.402C81.4709 14.3247 81.7632 13.3614 82.3635 12.7917C83.0734 12.1029 84.2165 11.6575 85.913 11.6626C87.6668 11.6626 88.6951 12.077 89.4781 12.7658C90.1201 13.32 90.3707 14.3247 90.3654 15.402C90.3654 16.4792 90.0992 17.4581 89.4572 18.0381Z" fill="#00FFFF"/>
<path d="M106.744 17.8723L99.9271 10.0052L97.5312 10V20.8399H99.6035V12.8744L106.504 20.8399H108.775V10.0052H106.744V17.8723Z" fill="#00FFFF"/>
<path d="M113.133 11.8807L118.003 11.8859V20.8458H120.19V11.8859H125.044V10.0059H113.133V11.8807Z" fill="#00FFFF"/>
<path d="M131.518 16.3296H139.546L139.551 14.4547H131.518V11.8962L139.786 11.9014V10.0059H129.419L129.414 20.8458H139.88V18.9398H131.518V16.3296Z" fill="#00FFFF"/>
<path d="M155.833 14.9432C156.1 14.5185 156.235 13.8815 156.235 13.1357C156.235 12.307 156.068 11.727 155.719 11.2557C155.191 10.4944 154.163 10.0127 152.535 10.0127H145.102V20.8526H147.216V16.4607H151.877L154.868 20.8526H157.29L154.007 16.1137C154.831 16.0049 155.473 15.5233 155.833 14.9432ZM152.508 14.6376H147.236C147.236 14.6273 147.236 11.8616 147.236 11.8616H152.289C153.192 11.8616 153.683 12.0688 153.944 12.4676C154.085 12.6592 154.137 12.9907 154.137 13.2963C154.137 13.5604 154.08 13.8763 153.944 14.1249C153.746 14.4719 153.286 14.6376 152.508 14.6376Z" fill="#00FFFF"/>
<path d="M164.115 16.3364H172.143V14.4616L164.115 14.4564V11.9031H172.378V10.0127H162.012V20.8526H172.477V18.9467H164.11L164.115 16.3364Z" fill="#00FFFF"/>
<path d="M187.637 10L183.07 15.4691L178.643 10.0104H176.211L181.968 17.2767V20.8503H184.114V17.2611L190.002 10H187.637Z" fill="#00FFFF"/>
<path d="M37.4311 30.5296L49.4052 23.6725C50.136 23.2529 50.5901 22.4813 50.5901 21.6422V9.21236C50.5901 8.37334 50.1412 7.60165 49.4105 7.18214L37.311 0.314631C36.5802 -0.104877 35.6772 -0.104877 34.9464 0.314631L25.2324 5.877L15.5236 0.314631C14.7929 -0.104877 13.8898 -0.104877 13.1591 0.314631L1.18489 7.17178C0.454123 7.59129 0 8.36298 0 9.202V21.6319C0 22.4709 0.448902 23.2426 1.17967 23.6621L13.2687 30.5244C13.6341 30.7316 14.0412 30.8404 14.4536 30.8404C14.8607 30.8404 15.2679 30.7368 15.6332 30.5244L25.3525 24.9621L35.0665 30.5296C35.7973 30.9491 36.7003 30.9491 37.4311 30.5296ZM8.41429 5.77342V25.0656L2.4272 21.6319V9.202L8.41429 5.77342L14.4014 2.34485L25.2951 8.58568L36.1888 2.34485L48.1629 9.20718V21.6371L42.1758 25.0656V5.77342L25.2951 15.4428L8.41429 5.77342Z" fill="#00FFFF"/>
</svg>
